<svg width="215" height="196" viewBox="0 0 215 196" fill="none" xmlns="http://www.w3.org/2000/svg">
<path d="M26.6494 133.775C27.9834 134.082 29.3523 134.382 30.7549 134.671C33.3012 135.196 35.9707 135.693 38.752 136.163C39.8497 138.463 41.0429 140.71 42.3281 142.896C51.199 138.618 62.1657 140.157 69.5225 147.518C76.8584 154.858 78.4061 165.786 74.1738 174.646C81.0212 178.644 88.4503 181.748 96.3037 183.801C99.5787 174.551 108.395 167.925 118.766 167.925C129.136 167.925 137.952 174.551 141.227 183.801C149.08 181.748 156.509 178.644 163.356 174.646C160.603 168.882 160.297 162.243 162.438 156.285L173.548 156.704C170.186 161.661 170.436 168.342 174.301 173.039L177.887 177.396L173.179 180.51C162.801 187.374 151.049 192.334 138.422 194.886L132.905 196L132.354 190.398C131.674 183.491 125.845 178.095 118.766 178.095C111.686 178.095 105.856 183.491 105.177 190.398L104.626 196L99.1094 194.886C86.4822 192.334 74.7293 187.374 64.3516 180.51L59.6445 177.396L63.2305 173.038C67.6444 167.673 67.3429 159.722 62.3301 154.706C57.3065 149.68 49.3369 149.389 43.9766 153.835L39.6289 157.441L36.498 152.739C32.5669 146.836 29.2534 140.483 26.6494 133.775ZM23.8896 125.622C26.4592 126.295 29.2406 126.942 32.2217 127.557C33.2642 127.771 34.329 127.981 35.415 128.187C35.9003 129.528 36.4166 130.855 36.9639 132.165C32.7263 131.405 28.781 130.576 25.166 129.689C24.712 128.346 24.2868 126.99 23.8896 125.622ZM48.3535 104.278C46.3417 111.993 40.5619 118.184 33.0957 120.77C33.4033 121.932 33.7367 123.084 34.0898 124.228L32.9541 123.999C29.2082 123.227 25.8198 122.409 22.8037 121.563C22.5106 120.364 22.2392 119.156 21.9902 117.94L20.8477 112.357L26.5234 111.855C30.5813 111.496 34.1298 109.356 36.3857 106.222C40.1244 105.518 44.1239 104.868 48.3535 104.278ZM49.083 96.8486C49.1097 97.3109 49.124 97.7771 49.124 98.2461L49.1172 98.8271C49.1035 99.3971 49.0676 99.9622 49.0146 100.521C45.2968 101.025 41.7454 101.576 38.3799 102.168C38.7212 101.027 38.9204 99.824 38.9502 98.5791L38.9521 98.3838C42.176 97.8333 45.5582 97.3197 49.083 96.8486ZM33.1494 75.0615C33.0943 75.2681 33.0371 75.4745 32.9834 75.6816C40.837 78.3574 46.8432 85.0161 48.5986 93.251C45.0938 93.7193 41.7243 94.2281 38.5059 94.7754C37.0914 89.372 32.4577 85.2726 26.7822 84.6611L26.4551 84.6299L20.7773 84.1553L21.8916 78.5674L22.1367 77.3799C22.5494 75.4361 23.0189 73.5129 23.5439 71.6133L33.1494 75.0615ZM36.8906 64.0332C35.871 66.4899 34.9593 69.0023 34.1602 71.5645L24.5791 68.125C25.1323 66.3786 25.732 64.653 26.3779 62.9502L36.8906 64.0332ZM138.464 1.14551C151.183 3.72117 163.013 8.74083 173.443 15.6885L178.225 18.873L174.483 23.2324C170.551 27.8141 170.153 34.3915 173.286 39.3818L162.291 39.7852C160.269 33.8104 160.683 27.1927 163.533 21.4795C156.68 17.4571 149.241 14.3312 141.375 12.2607C138.224 21.7345 129.296 28.5663 118.766 28.5664C108.235 28.5663 99.306 21.7347 96.1553 12.2607C88.2892 14.3313 80.8502 17.4571 73.9971 21.4795C78.3659 30.237 77.012 41.1201 69.9316 48.5547L69.5225 48.9746C62.1065 56.3941 51.0221 57.8973 42.1143 53.4902C40.7843 55.7772 39.5558 58.1304 38.4307 60.541L27.7861 59.4443C30.1443 53.8831 32.9964 48.583 36.2871 43.5996L39.4551 38.8008L43.8301 42.5332C49.1911 47.1074 57.2603 46.8574 62.3301 41.7852L62.5645 41.5449C67.4185 36.4477 67.58 28.5137 63.0469 23.2324L59.3057 18.873L64.0869 15.6885C74.5178 8.74057 86.3484 3.72122 99.0674 1.14551L104.724 0L105.147 5.75586C105.668 12.8242 111.571 18.3973 118.766 18.3975C125.96 18.3973 131.863 12.8244 132.384 5.75586L132.807 0L138.464 1.14551Z" fill="#EA2227"/>
<path fill-rule="evenodd" clip-rule="evenodd" d="M193.943 80.2195L148.25 94.9421C187.419 98.2507 215.008 106.185 215.008 115.449C215.008 127.684 166.877 137.603 107.504 137.603C48.1311 137.603 0 127.684 0 115.449C0 104.078 41.5695 94.7093 95.0994 93.4418L3.63189 60.6074L193.943 80.2195ZM101.632 96.9588C74.466 97.2622 50.09 99.6575 32.2202 103.34C22.6162 105.319 15.0829 107.633 10.0388 110.09C7.50918 111.323 5.79499 112.502 4.76117 113.543C3.73781 114.573 3.63189 115.2 3.63189 115.449C3.63189 115.698 3.73781 116.324 4.76117 117.355C5.79499 118.396 7.50918 119.575 10.0388 120.807C15.0829 123.265 22.6162 125.578 32.2202 127.557C51.3685 131.503 77.9872 133.971 107.504 133.971C137.02 133.971 163.639 131.503 182.787 127.557C192.391 125.578 199.925 123.265 204.969 120.807C207.498 119.575 209.213 118.396 210.246 117.355C211.27 116.324 211.376 115.698 211.376 115.449C211.376 115.2 211.27 114.573 210.246 113.543C209.213 112.502 207.498 111.323 204.969 110.09C199.925 107.633 192.391 105.319 182.787 103.34C170.775 100.865 155.824 98.9706 139.061 97.9029L63.1948 122.349L101.632 96.9588Z" fill="#1078BA"/>
</svg>
