<svg width="132" height="56" viewBox="0 0 132 56" fill="none" xmlns="http://www.w3.org/2000/svg">
<path fill-rule="evenodd" clip-rule="evenodd" d="M78.9904 53.7918C79.2338 53.081 80.2187 51.7887 80.7324 50.931C81.1461 50.234 81.9159 48.7961 82.1798 47.9572C83.0649 45.1667 81.1576 43.3295 78.8085 42.9314C71.77 41.732 71.4959 51.4057 77.6377 50.0168C77.3828 50.5656 77.6365 50.0846 77.3188 50.5693L76.3261 51.8817C75.8881 52.4619 75.336 53.1199 75.0055 53.8106L78.9904 53.7918ZM77.4046 45.2233C78.7419 44.5815 79.2337 47.539 78.0425 48.0526C76.5643 48.6856 76.0674 45.86 77.4046 45.2233Z" fill="white"/>
<path fill-rule="evenodd" clip-rule="evenodd" d="M84.0391 45.3235L85.4237 45.3335L85.4275 53.7903L89.1165 53.7099L89.0947 42.8281L84.0531 42.8357L84.0391 45.3235Z" fill="white"/>
<path d="M93.8933 48.596C93.8933 50.0176 94.0189 50.9921 94.2776 51.5095C94.5338 52.0307 94.9039 52.2944 95.3958 52.2944C95.7147 52.2944 95.9953 52.1852 96.231 51.9629C96.4667 51.7368 96.637 51.389 96.7497 50.9143C96.8637 50.4345 96.9188 49.6886 96.9188 48.6802C96.9188 47.1932 96.7907 46.1986 96.5332 45.685C96.2758 45.1739 95.8915 44.9177 95.3791 44.9177C94.8527 44.9177 94.4761 45.1814 94.2405 45.7026C94.0099 46.225 93.8933 47.1882 93.8933 48.596ZM90.7539 48.5935C90.7539 46.4674 91.1432 44.983 91.9233 44.134C92.7047 43.2851 93.8946 42.8594 95.4906 42.8594C96.2579 42.8594 96.8893 42.9548 97.3799 43.1382C97.8743 43.324 98.2765 43.5652 98.5865 43.8628C98.9003 44.1579 99.1449 44.4719 99.3217 44.7984C99.501 45.1274 99.6471 45.5092 99.7521 45.945C99.966 46.7801 100.074 47.6491 100.074 48.5571C100.074 50.584 99.7227 52.0659 99.0233 53.009C98.3214 53.9459 97.1186 54.4168 95.4074 54.4168C94.4454 54.4168 93.6718 54.2661 93.0787 53.9672C92.4882 53.667 92.0053 53.2275 91.6249 52.6461C91.3521 52.2354 91.1369 51.6766 90.9832 50.962C90.8321 50.2437 90.7539 49.455 90.7539 48.5935Z" fill="white"/>
<path d="M104.856 48.596C104.856 50.0176 104.985 50.9921 105.24 51.5095C105.499 52.0307 105.871 52.2944 106.358 52.2944C106.68 52.2944 106.96 52.1852 107.194 51.9629C107.431 51.7368 107.604 51.389 107.717 50.9143C107.829 50.4345 107.884 49.6886 107.884 48.6802C107.884 47.1932 107.756 46.1986 107.498 45.685C107.241 45.1739 106.855 44.9177 106.341 44.9177C105.819 44.9177 105.44 45.1814 105.208 45.7026C104.975 46.225 104.856 47.1882 104.856 48.596ZM101.719 48.5935C101.719 46.4674 102.109 44.983 102.889 44.134C103.67 43.2851 104.859 42.8594 106.455 42.8594C107.223 42.8594 107.854 42.9548 108.346 43.1382C108.839 43.324 109.241 43.5652 109.551 43.8628C109.864 44.1579 110.109 44.4719 110.287 44.7984C110.467 45.1274 110.611 45.5092 110.72 45.945C110.931 46.7801 111.037 47.6491 111.037 48.5571C111.037 50.584 110.687 52.0659 109.986 53.009C109.289 53.9459 108.083 54.4168 106.372 54.4168C105.412 54.4168 104.637 54.2661 104.046 53.9672C103.453 53.667 102.969 53.2275 102.588 52.6461C102.316 52.2354 102.102 51.6766 101.948 50.962C101.794 50.2437 101.719 49.455 101.719 48.5935Z" fill="white"/>
<path d="M117.021 45.5818V51.6877H117.887C118.625 51.6877 119.15 51.6035 119.465 51.4453C119.775 51.2871 120.02 51.0083 120.195 50.6077C120.375 50.2083 120.462 49.5628 120.462 48.6649C120.462 47.4832 120.266 46.6732 119.871 46.2361C119.474 45.7953 118.818 45.5818 117.902 45.5818H117.021ZM113.5 43.0488H118.739C119.771 43.0488 120.606 43.1895 121.239 43.4607C121.874 43.7383 122.401 44.1288 122.818 44.6425C123.231 45.1561 123.533 45.7551 123.716 46.4345C123.906 47.1177 123.998 47.8386 123.998 48.6021C123.998 49.8002 123.862 50.7245 123.582 51.3825C123.308 52.0406 122.918 52.5944 122.428 53.0377C121.935 53.4823 121.404 53.7799 120.839 53.9268C120.067 54.1315 119.366 54.2333 118.739 54.2333H113.5V43.0488Z" fill="white"/>
<path fill-rule="evenodd" clip-rule="evenodd" d="M67.5216 33.0034C67.008 34.999 66.192 36.8739 65.1276 38.5806C65.3146 37.7568 65.3902 36.8375 65.316 35.7437C66.055 34.9412 66.7172 34.1274 67.2923 33.3262L67.5216 33.0034ZM68.13 28.9572C68.1095 29.3741 68.0788 29.7822 68.034 30.1904C67.6293 31.0243 67.1053 31.8883 66.4777 32.7636C66.0793 33.3136 65.6426 33.87 65.1661 34.4238C64.9945 33.3413 64.7024 32.1093 64.249 30.6764C65.5824 30.1276 66.8786 29.5512 68.13 28.9572ZM67.5332 23.4591L67.7035 23.7718C67.8188 24.3043 67.911 24.8393 67.9841 25.3806C66.3881 26.1793 64.7114 26.939 62.9694 27.6637C62.8861 27.513 62.8028 27.366 62.7132 27.2141C62.8835 27.0169 63.0488 26.821 63.2089 26.6188C63.4189 26.3576 63.6188 26.0989 63.8122 25.8364C65.0867 25.0854 66.3279 24.293 67.5332 23.4591ZM58.3774 14.2238C61.1018 15.8187 63.5189 17.9096 65.4492 20.351C65.4056 20.5695 65.3518 20.7918 65.2839 21.0191C63.7315 22.0752 62.1163 23.0636 60.4383 23.9816C59.0947 22.3352 57.4795 20.7064 55.6927 19.2056C56.0449 18.7523 56.3664 18.2939 56.661 17.8406C57.459 16.6111 58.0418 15.3854 58.3774 14.2238ZM48.3429 10.9511C51.5656 11.25 54.6718 12.2295 57.4846 13.7252C57.19 14.858 56.6213 16.0749 55.8156 17.3169C55.544 17.7363 55.2482 18.1558 54.9254 18.5777C52.4238 16.5822 49.62 14.8542 46.7687 13.6787L46.9378 13.4677C47.6026 12.6088 48.0829 11.7548 48.3429 10.9511ZM39.2166 12.0524C41.3634 11.2751 43.7368 10.8493 46.2768 10.8531C46.6278 10.8531 46.9749 10.8632 47.3195 10.8807C47.0812 11.5036 46.679 12.1793 46.1423 12.8687C46.0322 13.0131 45.9157 13.1576 45.794 13.2982C43.578 12.4894 41.3454 12.0273 39.2166 12.0524ZM59.5904 44.4064C59.2932 44.6136 58.9922 44.8108 58.6848 45.0017L59.5904 44.4064ZM64.5013 36.6077C64.6012 37.9451 64.4436 39.0214 64.1439 40.0135C62.8758 41.7001 61.3465 43.1782 59.6198 44.385C59.4303 43.6039 59.0908 42.6181 58.6156 41.4715C60.8546 39.9507 62.8413 38.293 64.5013 36.6077ZM63.1513 31.1235C63.761 32.7774 64.1426 34.1538 64.3463 35.3393C62.6645 37.1376 60.5908 38.9222 58.2198 40.551C57.3962 38.6861 56.2678 36.4721 54.887 34.0546L55.0266 33.9591C57.8292 33.1127 60.5536 32.1595 63.1513 31.1235ZM61.2235 27.2844L61.2709 27.351C60.7816 27.8834 60.2577 28.4146 59.7018 28.9471C57.5807 29.7282 55.3839 30.4554 53.1437 31.1109L53.0425 30.9489C55.8912 29.8777 58.622 28.6608 61.2235 27.2844ZM54.887 20.1965C56.5035 21.6106 57.9829 23.1138 59.2381 24.6195C56.7775 25.9017 54.1927 27.0345 51.4965 28.0266L51.2467 28.117C50.6191 27.1626 49.9658 26.1931 49.2882 25.2173C51.4926 23.6588 53.3883 21.9383 54.887 20.1965ZM46.2128 14.3205C48.9539 15.6667 51.5451 17.2691 53.9993 19.3212C52.5519 21.0027 50.6396 22.5964 48.503 24.1097C46.7572 21.6457 45.0677 19.4581 43.0464 17.0456C44.2723 16.1954 45.3482 15.2636 46.2128 14.3205ZM38.7388 12.2358C38.8733 12.1818 39.0014 12.1341 39.1346 12.0851C41.0906 12.2986 43.1771 12.9365 45.2739 13.8759C44.4759 14.7098 43.5076 15.5323 42.4073 16.2896C41.2199 14.9032 39.9941 13.5443 38.7388 12.2358ZM57.3898 42.2765C57.8445 43.2083 58.2685 44.1251 58.654 45.0192C56.9108 46.0942 54.9945 46.9055 52.9503 47.4041C52.0921 46.9582 51.2569 46.4333 50.4448 45.8418C51.1365 45.5668 51.8436 45.2654 52.5506 44.9364C53.7893 44.3562 55.0573 43.6843 56.3356 42.9233C56.6904 42.7135 57.044 42.4988 57.3898 42.2765ZM53.4409 35.0027C54.7192 37.1741 55.9078 39.3165 56.953 41.3886C56.579 41.6285 56.2012 41.8608 55.8169 42.0906C54.5924 42.819 53.3512 43.4733 52.1177 44.0472C51.2441 44.4591 50.3808 44.8221 49.5316 45.1423C47.6333 43.6002 45.89 41.6787 44.3619 39.4597C44.6629 39.3529 44.9627 39.2437 45.2637 39.1269V39.1244C47.2529 38.3671 49.3266 37.3888 51.4209 36.2071C52.11 35.8153 52.7863 35.4134 53.4409 35.0027ZM51.7078 34.9073C51.4529 35.058 51.1903 35.2087 50.9278 35.3569C48.8771 36.516 46.8468 37.4679 44.9063 38.2151H44.9012C44.5336 38.352 44.1685 38.4864 43.806 38.612C43.4512 38.0594 43.1118 37.4855 42.7826 36.9015C45.3841 36.4331 47.9817 35.8667 50.5358 35.2125C50.9265 35.112 51.3197 35.009 51.7078 34.9073ZM51.3543 31.5567L51.3876 31.6057L50.5038 31.8481C50.7894 31.7501 51.0725 31.6547 51.3543 31.5567ZM47.91 26.1491C48.4633 27.0006 49.0167 27.8545 49.5636 28.711C46.5791 29.7207 43.4692 30.5583 40.2503 31.2415C40.103 30.8196 39.9621 30.3926 39.8302 29.9606C41.7131 29.3829 43.6856 28.5515 45.6595 27.4778C46.1795 27.1965 46.6983 26.8976 47.2004 26.5874C47.4399 26.448 47.6768 26.2998 47.91 26.1491ZM42.2318 17.5856C43.8906 20.0722 45.4007 22.2724 47.1338 24.9197C44.7142 26.4669 42.5508 27.7528 39.7981 28.6005C39.0988 26.1341 38.2931 22.8865 38.1663 21.2627C38.0395 19.6376 38.0894 20.15 38.0715 19.5987C39.118 19.2433 40.2221 18.746 41.3365 18.1156C41.64 17.9448 41.9411 17.7652 42.2318 17.5856ZM38.5019 12.3312L38.7158 12.2433C39.6483 13.6938 40.6499 15.2033 41.6862 16.7668C41.4095 16.9389 41.1264 17.1071 40.8395 17.2691C39.8878 17.8041 38.9476 18.2412 38.0472 18.5677C38.0254 16.4102 38.1829 14.3205 38.5019 12.3312ZM49.123 46.3379C49.8403 46.8515 50.5793 47.3162 51.3376 47.7281C50.3257 47.8863 49.2882 47.9692 48.2276 47.9692C46.8942 47.9692 45.5877 47.8373 44.3248 47.5862C45.8286 47.3438 47.445 46.9243 49.123 46.3379ZM42.9991 39.9105C44.5041 42.1384 46.2538 44.0711 48.1802 45.6195C45.8682 46.3793 43.7087 46.7962 41.8322 46.8502C39.7021 45.3483 37.8486 43.3942 36.3743 41.1073C38.311 41.0646 40.5667 40.6653 42.9991 39.9105ZM41.3403 37.149C41.69 37.8032 42.0563 38.4399 42.4419 39.0566C39.9685 39.8038 37.7064 40.1655 35.8133 40.1303H35.7774C35.388 39.4471 35.0307 38.7439 34.704 38.0142C36.902 37.8032 39.1205 37.5144 41.3403 37.149ZM38.6325 30.2971C38.7414 30.7003 38.8605 31.0996 38.9835 31.4965C37.0314 31.877 35.0409 32.201 33.0171 32.4685C32.9275 31.9536 32.8519 31.4374 32.7917 30.9087C33.4027 30.9615 34.0469 30.969 34.7207 30.9301C35.9388 30.8597 37.2556 30.6513 38.6325 30.2971ZM37.3773 19.8197C37.2709 23.2645 37.7205 25.6506 38.5403 29.0049C37.3196 29.5035 35.821 29.8877 34.6656 29.9505C33.9701 29.9895 33.3143 29.9782 32.7007 29.9166C32.6572 29.3176 32.6341 28.706 32.6341 28.0931C32.6341 25.3479 33.0773 22.7157 33.8855 20.2919C34.8846 20.3585 36.0797 20.199 37.3773 19.8197ZM38.4481 12.3513L38.475 12.3413C37.9191 14.3644 37.5591 16.5219 37.4246 18.7812C36.2372 19.1579 35.1459 19.34 34.2288 19.3275C35.233 16.6977 36.674 14.333 38.4481 12.3513ZM35.1062 41.0759C36.2667 42.8919 37.6757 44.5031 39.2793 45.8418C36.7765 44.5772 34.576 42.804 32.8173 40.654C33.4987 40.8763 34.2685 41.0157 35.1062 41.0759ZM33.5244 38.121C33.8138 38.7752 34.1341 39.4157 34.4799 40.0311C33.2003 39.8515 32.1704 39.4433 31.4672 38.8004C31.3583 38.6308 31.252 38.4563 31.1483 38.2855C31.9348 38.2403 32.7289 38.1863 33.5244 38.121ZM31.653 30.758C31.7068 31.3797 31.7849 32 31.8848 32.6091C31.1688 32.6933 30.4515 32.7711 29.7291 32.8427C29.5305 32.8628 29.25 32.8804 28.908 32.8942C28.6121 31.7125 28.4188 30.4842 28.3419 29.2272C29.1847 29.9907 30.3132 30.4968 31.653 30.758ZM33.1542 20.199C32.1333 22.8111 31.5633 25.6907 31.5633 28.716C31.5633 29.0576 31.5735 29.403 31.5889 29.7433C30.1338 29.4155 29.0118 28.7474 28.3637 27.7239H28.3624L28.3086 27.636C28.3137 27.3798 28.3226 27.1262 28.3367 26.8737C28.9157 24.7928 29.9443 22.1079 31.5582 19.4782C31.9719 19.8336 32.5137 20.0734 33.1542 20.199ZM38.1701 12.4719L38.3802 12.3802C36.3705 14.2815 34.7156 16.6249 33.5397 19.2722C32.9159 19.1793 32.4215 18.9658 32.1 18.6305C33.6307 16.3323 35.6237 14.1283 38.1701 12.4719ZM31.1982 19.0989C30.212 20.6373 29.3922 22.2824 28.7159 23.9477C29.1258 21.9446 29.8393 20.0508 30.7986 18.3203L30.8319 18.427C30.8845 18.574 30.9523 18.7146 31.0292 18.849C31.0791 18.9369 31.1368 19.021 31.1982 19.0989ZM42.4086 8.89652C43.7266 8.49089 45.1074 8.22465 46.5279 8.10032C46.5753 8.12167 46.6227 8.14177 46.665 8.16688C46.5164 8.20958 46.3563 8.25479 46.1859 8.3113C43.9623 9.03591 40.2516 10.7263 38.9425 11.9494C39.9954 10.9259 41.1725 9.87481 42.4086 8.89652ZM47.4898 10.3357C44.4887 10.3533 41.6452 10.9649 39.0821 12.0562L39.0424 12.075L38.7209 12.2144L38.4019 12.3626C35.7108 13.6373 33.4962 15.8011 31.8105 18.1922L31.7785 18.108C31.6414 17.7162 31.6453 17.2516 31.7785 16.7379C32.2524 16.0409 32.7699 15.3766 33.3245 14.7537C34.9679 13.7541 36.7112 12.87 38.3559 12.1391C38.3559 12.1391 35.7633 12.6025 34.0149 14.0103C34.6733 13.3384 35.3778 12.7155 36.1258 12.1416C36.9085 12.0637 37.6821 12.011 38.4301 11.9771C38.4301 11.9771 37.6475 11.8213 36.5844 11.7962C37.2108 11.3466 37.8653 10.9234 38.5454 10.5479C38.589 11.4032 38.7107 12.0034 38.7107 12.0034C38.7376 11.4747 38.7721 10.941 38.8195 10.3947C39.6367 9.95519 40.4898 9.57216 41.3672 9.24815C39.9031 10.3997 38.9438 11.9507 38.9438 11.9507C41.0982 10.7476 44.5989 9.38252 47.0953 8.46702C47.2644 8.62903 47.3899 8.82242 47.4681 9.0447C47.6026 9.41643 47.6026 9.85723 47.4898 10.3357ZM66.502 20.0282L66.5481 20.1324L66.479 20.1814L66.502 20.0282ZM58.6143 10.9561C61.3926 12.6615 63.7212 15.0275 65.3838 17.838L65.2993 17.8694C65.4914 18.3554 65.5747 18.8904 65.5529 19.4706C63.7584 16.9326 61.3798 14.7926 58.6054 13.2191C58.7399 12.4267 58.7463 11.6619 58.6143 10.9561ZM48.2276 8.03125C51.5221 8.03125 54.6295 8.82996 57.3616 10.249C57.6844 10.9762 57.7792 11.8151 57.6716 12.723C54.91 11.3303 51.7962 10.4851 48.4966 10.3533C48.6081 9.76555 48.5825 9.21299 48.4108 8.72071C48.3186 8.46703 48.1931 8.23469 48.0355 8.03125H48.2276Z" fill="white"/>
<path d="M76.3549 23.1085C76.6406 24.6959 76.7892 26.331 76.7892 28.0013C76.7892 35.7321 73.5921 42.7321 68.4237 47.8019C63.2579 52.8654 56.1182 56 48.2305 56C40.3479 56 33.207 52.8654 28.0387 47.8019C25.2617 45.0768 23.0573 41.7978 21.6073 38.1471C23.3634 38.3091 24.7865 38.3807 25.5038 38.3933C26.6783 38.4146 27.8696 38.4071 29.0749 38.3707C30.0714 40.1376 31.3138 41.7526 32.76 43.1717C36.7179 47.0497 42.1873 49.4534 48.2305 49.4534C54.275 49.4534 59.7457 47.0497 63.7036 43.1717C67.6628 39.2887 70.112 33.9263 70.112 28V27.9812C71.3262 27.362 72.4918 26.7216 73.6062 26.0673L73.7356 26.0108L75.1547 25.4067L75.5967 24.9621L76.3549 23.1085ZM75.375 19.2757C75.5249 19.7291 75.6658 20.1837 75.7914 20.6446L75.7478 20.6697L75.3892 21.0753L74.6898 22.7921L74.5847 22.1378L74.3824 20.8782L75.1752 19.9953L72.9209 19.1878L73.6754 18.7169L74.9652 19.1803L75.3162 19.3071L75.375 19.2757ZM48.2305 0C56.1169 0 63.2566 3.13581 68.4237 8.20308C71.0649 10.7939 73.1912 13.882 74.6399 17.3217L73.8662 17.0441L73.4819 16.9072L73.131 17.1258L72.2356 17.6846L69.6252 17.6356L69.0539 17.8428L68.0087 18.7608L67.992 18.7747C66.9148 16.5581 65.4572 14.5488 63.7049 12.8321C59.747 8.9503 54.2763 6.54539 48.2318 6.54539C42.1886 6.54539 36.7192 8.9503 32.7613 12.8321C28.802 16.7101 26.3517 22.0762 26.3517 28C26.3517 29.6966 26.5528 31.3468 26.9332 32.9279C25.5691 32.9203 23.9321 32.8563 22.4002 32.6918C21.5202 32.5976 20.6928 32.4733 20.0139 32.315C19.8627 31.3543 19.6847 30.7377 19.6629 29.6991C19.6629 29.6991 15.3053 31.5653 17.6737 33.1489C20.01 34.7112 28.0719 34.6446 29.8921 34.4688C45.1231 32.9706 58.6326 28.3642 68.9655 20.3809L70.883 21.0678L70.5666 21.4182L70.8305 21.9155L71.3851 22.9641L71.6887 23.5305L72.2625 23.3936L72.4918 24.8165C60.2107 31.986 41.2638 37.0596 25.5332 36.7644C22.2452 36.7054 3.48146 35.3391 9.01361 30.0144C11.1424 27.9661 19.6066 27.1084 19.6066 27.1084L19.7961 25.4507C20.4122 18.7395 23.4505 12.7077 28.0425 8.20685C33.207 3.1358 40.3479 0 48.2305 0Z" fill="white"/>
<path fill-rule="evenodd" clip-rule="evenodd" d="M69.6078 18.4532L68.5625 19.3675L72.313 20.71L71.5675 21.5401L72.1221 22.5899L72.9393 22.394L73.403 25.2623L74.8235 24.6621L76.1607 21.3818L77.2879 20.7526L78.0885 21.3291L78.4099 24.3971L80.6592 22.1416L82.8816 20.8569L81.3009 20.7225L83.7103 18.8852L83.8717 17.9911L85.264 16.8131L85.5048 15.9478L87.4594 14.8703L87.5926 14.0817L91.9989 11.2485L83.1775 14.0817L82.227 13.5341L82.4538 12.9527L81.3009 13.1247L76.9241 10.9609L77.5966 17.1685L75.25 18.4143L73.5797 17.8128L72.4667 18.5097L69.6078 18.4532Z" fill="white"/>
<path fill-rule="evenodd" clip-rule="evenodd" d="M76.7875 27.6286C79.9987 27.5759 89.6131 28.7363 85.39 34.1678C81.8996 38.6536 67.0156 39.0065 67.0156 39.0065C69.1022 38.0734 75.8512 36.4471 79.8104 33.8149C81.1477 32.4184 78.9522 31.8872 76.5518 31.6159C76.7183 30.5484 76.7671 29.0879 76.7875 27.6286Z" fill="white"/>
<path fill-rule="evenodd" clip-rule="evenodd" d="M97.2656 40.1995L104.156 40.1894C104.04 39.662 103.93 39.186 103.77 38.6837C103.523 37.9025 103.66 37.9729 103.126 37.6602H97.9829L97.2656 40.1995Z" fill="white"/>
<path fill-rule="evenodd" clip-rule="evenodd" d="M99.082 34.2273L102.369 34.2374L100.934 29.3459C100.915 29.307 100.878 29.2367 100.861 29.2053L100.633 28.9102L99.082 34.2273Z" fill="white"/>
<path fill-rule="evenodd" clip-rule="evenodd" d="M113.084 19.625H112.602V20.3345H113.061C113.114 20.3345 113.21 20.3207 113.355 20.2856C113.428 20.2755 113.487 20.2366 113.532 20.1776C113.579 20.1198 113.602 20.0495 113.602 19.9766C113.602 19.8636 113.565 19.7757 113.493 19.7154C113.421 19.6576 113.283 19.625 113.084 19.625Z" fill="white"/>
<path fill-rule="evenodd" clip-rule="evenodd" d="M120.311 19.7109H120.035V21.611H120.307C120.535 21.611 120.7 21.5897 120.796 21.5369C120.893 21.4879 120.97 21.4 121.027 21.277C121.082 21.1501 121.109 20.953 121.109 20.6716C121.109 20.3062 121.047 20.0525 120.924 19.9144C120.8 19.7762 120.596 19.7109 120.311 19.7109Z" fill="white"/>
<path fill-rule="evenodd" clip-rule="evenodd" d="M119.565 40.0788C119.487 40.1115 119.397 40.1353 119.318 40.1667C120.55 40.1743 122.07 40.1856 124.001 40.2019L123.997 7.21875L71.5625 7.22126L74.173 10.5542C74.5649 9.25194 75.5807 8.29876 77.2843 8.28746C78.446 8.27992 80.2162 9.40389 81.1423 9.88111C81.9595 10.3043 82.2413 10.1737 83.2698 10.3822C84.4329 10.6183 84.4393 10.4023 85.5254 10.0645C87.033 9.59227 88.3421 9.18412 89.8792 8.74458C93.9959 7.56661 95.7917 11.2537 93.481 13.5896C92.4358 14.642 91.6084 14.9584 90.2532 15.8212C89.3131 16.4165 89.7831 16.5747 88.8775 17.2767C87.8848 18.044 88.0385 17.5103 87.4737 18.7347C87.4404 18.8076 87.3892 18.8641 87.3213 18.9181H89.0709C89.4091 18.9181 89.6717 18.9457 89.8484 19.0022C90.029 19.0587 90.1712 19.1642 90.2814 19.3187C90.3928 19.4769 90.4467 19.6628 90.4467 19.8851C90.4467 20.0785 90.4056 20.2442 90.3198 20.3886C90.2365 20.528 90.1187 20.6373 89.9727 20.7265C89.8792 20.783 89.7524 20.832 89.5872 20.8671C89.7191 20.9086 89.8125 20.95 89.8727 20.994C89.9112 21.0216 89.9727 21.0856 90.0495 21.1773C90.1264 21.269 90.1764 21.3431 90.2033 21.3958L90.7361 22.3992H89.4937L88.9083 21.3406C88.8352 21.2037 88.7674 21.1107 88.7098 21.0718C88.6303 21.0191 88.5407 20.9914 88.4407 20.9914H88.3434V22.3992H87.2419V18.9733C87.1855 19.011 87.1304 19.0499 87.0549 19.0951C86.417 19.4857 86.3465 19.6829 85.8264 20.5092C85.3666 21.2376 84.9375 22.9016 83.1033 23.8522C81.9761 24.4374 82.2041 24.4714 81.515 25.52C81.5534 25.5489 81.6238 25.5388 81.6469 25.5978C81.6687 25.6581 81.7507 25.6581 81.7789 25.6694C81.8122 25.6832 81.8813 25.7222 81.9185 25.7372L82.874 25.9859C90.8731 27.8872 90.8142 35.4523 82.436 39.0139C81.4663 39.4296 80.284 39.6267 79.4784 40.1378C84.5161 40.163 88.7533 40.1805 92.3308 40.1931L98.196 24.9134H103.564L109.411 40.2107C110.45 40.2057 111.221 40.1981 111.845 40.1918C111.142 39.9457 110.569 39.6179 110.144 39.201C109.107 38.1838 108.517 36.889 108.383 35.323L113.038 35.0354C113.136 35.7776 113.344 36.3415 113.654 36.7257C114.16 37.3511 114.878 37.6689 115.817 37.6689C116.515 37.6689 117.054 37.5069 117.43 37.1866C117.811 36.8626 118 36.4884 118 36.0664C118 35.6646 117.82 35.3029 117.464 34.9827C117.106 34.6624 116.271 34.3673 114.96 34.0822C112.811 33.61 111.282 32.9796 110.364 32.1947C109.441 31.4111 108.981 30.4139 108.981 29.1958C108.981 28.4008 109.215 27.6448 109.691 26.9365C110.161 26.2232 110.872 25.6656 111.819 25.2575C112.77 24.8531 114.071 24.6522 115.72 24.6522C117.749 24.6522 119.292 25.0227 120.357 25.7661C121.417 26.5045 122.05 27.6787 122.254 29.295L117.644 29.5637C117.522 28.8592 117.262 28.3418 116.871 28.0254C116.477 27.7014 115.932 27.5431 115.243 27.5431C114.675 27.5431 114.243 27.6624 113.955 27.8985C113.665 28.1346 113.522 28.4222 113.522 28.7625C113.522 29.0087 113.641 29.231 113.871 29.4281C114.097 29.6353 114.643 29.8212 115.508 29.9983C117.651 30.4504 119.181 30.9138 120.106 31.3747C121.033 31.8381 121.709 32.412 122.131 33.1027C122.551 33.7846 122.762 34.5519 122.762 35.4034C122.762 36.4005 122.482 37.3185 121.918 38.1624C121.361 39.0026 120.578 39.6468 119.565 40.0788ZM94.0779 22.4017H91.0871V18.9218H94.0241V19.6678H92.1886V20.2204H93.8922V20.9299H92.1886V21.6168H94.0779V22.4017ZM98.155 21.8982C97.8309 22.1179 97.5415 22.2649 97.293 22.3452C97.0445 22.4243 96.7473 22.462 96.4053 22.462C95.9839 22.462 95.638 22.3904 95.3729 22.251C95.1077 22.1104 94.9028 21.8982 94.7555 21.6206C94.6108 21.3456 94.5365 21.0216 94.5365 20.6637C94.5365 20.2794 94.6172 19.9516 94.7773 19.6703C94.9361 19.389 95.1705 19.1768 95.4792 19.0298C95.72 18.9168 96.0415 18.8616 96.4501 18.8616C96.8421 18.8616 97.1354 18.8992 97.3301 18.9658C97.5261 19.0374 97.6862 19.1466 97.8156 19.2898C97.945 19.438 98.041 19.6251 98.1038 19.8486L97.0496 20.032C97.0048 19.9014 96.9305 19.7984 96.8267 19.7331C96.723 19.659 96.591 19.6238 96.4271 19.6238C96.1875 19.6238 95.9967 19.708 95.8532 19.87C95.7098 20.032 95.6393 20.292 95.6393 20.6474C95.6393 21.0241 95.7124 21.2954 95.8545 21.4548C96.0006 21.6156 96.2016 21.696 96.4604 21.696C96.5833 21.696 96.6999 21.6784 96.8088 21.6432C96.9215 21.6118 97.0496 21.5515 97.1918 21.4674V21.1434H96.4591V20.415H98.1563V21.8982H98.155ZM99.9495 22.4017H98.8479V18.9218H99.9495V22.4017ZM103.577 21.8881C103.449 22.074 103.276 22.2196 103.049 22.3176C102.825 22.413 102.538 22.462 102.194 22.462C101.592 22.462 101.173 22.349 100.94 22.1204C100.708 21.8919 100.575 21.603 100.544 21.2527L101.585 21.1886C101.608 21.3544 101.654 21.4812 101.724 21.5654C101.835 21.7098 101.999 21.7801 102.208 21.7801C102.365 21.7801 102.486 21.7412 102.566 21.6683C102.652 21.6005 102.697 21.5126 102.697 21.4172C102.697 21.3305 102.659 21.2489 102.577 21.1761C102.496 21.1045 102.309 21.0392 102.016 20.9751C101.534 20.8696 101.193 20.729 100.986 20.5532C100.78 20.3761 100.678 20.1563 100.678 19.8851C100.678 19.7042 100.73 19.5372 100.836 19.3777C100.942 19.2157 101.101 19.0926 101.315 19.001C101.525 18.9093 101.818 18.8653 102.187 18.8653C102.642 18.8653 102.986 18.9482 103.225 19.114C103.463 19.2797 103.606 19.5435 103.65 19.9052L102.618 19.9654C102.591 19.8085 102.533 19.6954 102.443 19.6226C102.356 19.551 102.235 19.5121 102.08 19.5121C101.952 19.5121 101.857 19.5397 101.793 19.5924C101.727 19.6464 101.697 19.7092 101.697 19.7858C101.697 19.8424 101.724 19.8876 101.773 19.934C101.826 19.983 101.948 20.0207 102.14 20.0646C102.62 20.1626 102.965 20.2681 103.17 20.3698C103.378 20.4753 103.528 20.6034 103.623 20.7579C103.717 20.9086 103.763 21.0819 103.763 21.2715C103.764 21.4938 103.704 21.6985 103.577 21.8881ZM107.408 19.7833H106.286V22.4017H105.19V19.7833H104.07V18.9206H107.408V19.7833ZM110.892 22.4017H107.9V18.9218H110.838V19.6678H109.002V20.2204H110.703V20.9299H109.002V21.6168H110.892V22.4017ZM113.751 22.4017L113.164 21.3431C113.088 21.2062 113.025 21.1133 112.966 21.0743C112.885 21.0216 112.796 20.994 112.696 20.994H112.601V22.4017H111.498V18.9218H113.328C113.668 18.9218 113.929 18.9495 114.105 19.006C114.284 19.0625 114.43 19.168 114.539 19.3224C114.648 19.4807 114.703 19.6665 114.703 19.8888C114.703 20.0822 114.662 20.248 114.577 20.3924C114.494 20.5318 114.379 20.6411 114.23 20.7302C114.135 20.7867 114.005 20.8357 113.843 20.8709C113.975 20.9123 114.07 20.9538 114.129 20.9977C114.167 21.0254 114.228 21.0894 114.306 21.1811C114.381 21.2727 114.433 21.3468 114.457 21.3996L114.991 22.403L113.751 22.4017ZM118.334 22.4017H115.341V18.9218H118.279V19.6678H116.441V20.2204H118.143V20.9299H116.441V21.6168H118.334V22.4017ZM122.079 21.5151C121.994 21.7223 121.873 21.8919 121.719 22.0325C121.566 22.1694 121.402 22.2611 121.225 22.3101C120.984 22.3703 120.767 22.4017 120.572 22.4017H118.94V18.9218H120.572C120.891 18.9218 121.151 18.9645 121.349 19.0499C121.545 19.1366 121.71 19.2559 121.841 19.4179C121.97 19.5799 122.063 19.7632 122.122 19.9742C122.181 20.189 122.209 20.415 122.209 20.6499C122.21 21.0216 122.167 21.3117 122.079 21.5151Z" fill="white"/>
<path fill-rule="evenodd" clip-rule="evenodd" d="M89.0983 20.2875C89.1713 20.2775 89.2315 20.2385 89.275 20.1795C89.3224 20.1218 89.348 20.0514 89.348 19.9786C89.348 19.8656 89.3095 19.7777 89.2378 19.7174C89.1635 19.6583 89.0278 19.627 88.828 19.627H88.3438V20.3365H88.8088C88.8574 20.3365 88.9561 20.3227 89.0983 20.2875Z" fill="white"/>
</svg>
