<svg width="132" height="53" viewBox="0 0 132 53" fill="none" xmlns="http://www.w3.org/2000/svg">
<path d="M27.4492 18.4503L35.4816 0.9375H38.815L41.7683 13.3282L47.4518 0.9375H51.6173L43.612 18.4503H39.2942L36.7435 7.14823L31.6147 18.4503H27.4492Z" fill="white"/>
<path d="M61.2123 7.44906L60.517 9.12049C59.5574 6.59971 55.1641 7.2382 55.1641 7.2382C49.1406 7.72862 47.9095 13.6408 47.9095 13.6408C46.9251 18.5663 51.237 18.9288 53.3852 18.7215C55.9266 18.4715 57.5885 17.0394 57.5885 17.0394L57.0101 18.4467H61.1379L65.3164 7.44788L61.2123 7.44906ZM55.3777 15.5847C53.0559 15.8501 51.931 15.0375 52.0325 13.7972C52.0325 13.7972 52.2214 11.6164 54.5939 10.6545C56.865 9.73411 59.1525 10.324 59.267 11.7834C59.3744 13.1552 58.3593 15.2436 55.3777 15.5847Z" fill="white"/>
<path d="M108.88 7.44906L108.184 9.12049C107.225 6.59971 102.83 7.2382 102.83 7.2382C96.8092 7.72862 95.5781 13.6408 95.5781 13.6408C94.5913 18.5663 98.9044 18.9288 101.053 18.7215C103.594 18.4715 105.257 17.0394 105.257 17.0394L104.675 18.4467H108.806L112.983 7.44788L108.88 7.44906ZM103.047 15.5847C100.726 15.8501 99.5984 15.0375 99.6987 13.7972C99.6987 13.7972 99.89 11.6164 102.264 10.6545C104.535 9.73411 106.822 10.324 106.936 11.7834C107.042 13.1552 106.026 15.2436 103.047 15.5847Z" fill="white"/>
<path d="M79.7999 2.52267L77.2043 9.12076C76.2447 6.59998 71.8525 7.23847 71.8525 7.23847C65.8291 7.72888 64.5967 13.6411 64.5967 13.6411C63.6135 18.5666 67.9254 18.9291 70.0725 18.7218C72.6162 18.4718 74.2781 17.0397 74.2781 17.0397L73.6974 18.4469H77.8252L83.9194 2.52148L79.7999 2.52267ZM72.1145 15.5862C69.7939 15.8515 68.6666 15.0389 68.7681 13.7987C68.7681 13.7987 68.957 11.6179 71.3307 10.656C73.6018 9.73556 75.8893 10.3255 76.0038 11.7849C76.1101 13.1566 75.0926 15.245 72.1145 15.5862Z" fill="white"/>
<path d="M93.5591 11.3294L96.4121 9.1213C96.4121 9.1213 94.6935 6.41099 88.709 7.32193C82.7269 8.23524 81.4567 12.3208 81.2809 12.9285C81.1026 13.5386 79.8078 17.6739 84.7335 18.5991C90.3875 19.6628 93.3584 17.206 93.3584 17.206L92.171 14.5952C92.171 14.5952 89.9744 16.0534 86.9314 15.492C83.7149 14.9009 85.7321 10.4634 89.5824 10.3627C89.5824 10.3627 92.3977 10.1614 93.5591 11.3294Z" fill="white"/>
<path d="M124.293 7.16628C121.037 6.85355 118.649 8.83535 118.649 8.83535L119.142 7.44821H115.013L108.688 24.0418H112.874L115.658 16.7993C115.658 16.7993 116.196 19.3686 121.356 18.6377C125.429 18.062 127.457 15.5886 128.251 12.7599C129.136 9.61125 127.65 7.49086 124.293 7.16628ZM120.221 15.5851C117.9 15.8504 116.774 15.0378 116.877 13.7975C116.877 13.7975 117.065 11.6167 119.438 10.6549C121.709 9.73444 123.996 10.3244 124.11 11.7838C124.218 13.1555 123.201 15.2439 120.221 15.5851Z" fill="white"/>
<path d="M128.605 6.70827L128.949 6.67629C128.97 6.79238 129.013 6.87529 129.074 6.9286C129.138 6.98191 129.22 7.00915 129.329 7.00915C129.444 7.00915 129.527 6.98428 129.585 6.9369C129.643 6.88833 129.671 6.83265 129.671 6.7675C129.671 6.72604 129.658 6.69287 129.635 6.66326C129.611 6.63364 129.567 6.60639 129.51 6.58507C129.468 6.57441 129.374 6.54836 129.227 6.50927C129.037 6.46425 128.906 6.40502 128.83 6.33631C128.725 6.24155 128.67 6.12191 128.67 5.98568C128.67 5.89684 128.694 5.81273 128.745 5.73574C128.795 5.65637 128.867 5.59951 128.963 5.55805C129.06 5.51659 129.174 5.5 129.307 5.5C129.526 5.5 129.69 5.5462 129.801 5.64097C129.912 5.74047 129.97 5.86722 129.975 6.02714L129.623 6.04372C129.608 5.95369 129.575 5.88854 129.525 5.84945C129.477 5.80799 129.401 5.78904 129.303 5.78904C129.202 5.78904 129.12 5.81155 129.061 5.85301C129.027 5.87907 129.006 5.9146 129.006 5.96317C129.006 6.00463 129.026 6.03899 129.06 6.06742C129.104 6.10414 129.212 6.14323 129.381 6.18587C129.553 6.22733 129.681 6.26879 129.762 6.31025C129.844 6.35408 129.907 6.41449 129.956 6.48794C129.999 6.56256 130.024 6.65496 130.024 6.7675C130.024 6.86819 129.997 6.9594 129.942 7.04824C129.886 7.13471 129.808 7.19987 129.707 7.24133C129.605 7.28634 129.479 7.30648 129.327 7.30648C129.107 7.30648 128.937 7.25673 128.82 7.15249C128.7 7.05298 128.629 6.90491 128.605 6.70827Z" fill="white"/>
<path d="M130.316 7.27341V5.52734H130.622L131.158 6.27837L131.676 5.52734H131.998V7.27341H131.673V6.14925L131.157 6.80787L130.642 6.14925V7.27341H130.316Z" fill="white"/>
<path d="M0 26.3831L2.11406 21.582H2.89899L5.15231 26.3831H4.32366L3.67923 24.9273H1.37749L0.771954 26.3831H0ZM1.58994 24.4108H3.4561L2.88011 23.0805C2.70542 22.6789 2.57555 22.3461 2.49057 22.0855C2.42093 22.3935 2.32176 22.7003 2.1931 23.0012L1.58994 24.4108Z" fill="white"/>
<path d="M8.33829 26.3831V25.9436C8.08451 26.2884 7.71506 26.4601 7.2252 26.4601C6.9065 26.4601 6.61264 26.3843 6.34706 26.2327C6.07911 26.0775 5.87488 25.8666 5.72733 25.5906C5.58215 25.3182 5.50781 25.0019 5.50781 24.6489C5.50781 24.3006 5.57388 23.9867 5.70608 23.7012C5.8371 23.4193 6.03777 23.2025 6.30217 23.0497C6.56894 22.9028 6.8664 22.827 7.19336 22.827C7.43297 22.827 7.64778 22.872 7.83664 22.9573C8.02432 23.0473 8.17662 23.1623 8.29347 23.302V21.582H8.96745V26.3831H8.33829ZM6.20066 24.6477C6.20066 25.0907 6.30927 25.4224 6.52292 25.6463C6.73774 25.8666 6.99388 25.9756 7.28543 25.9756C7.5817 25.9756 7.83428 25.8678 8.03966 25.657C8.24623 25.4485 8.3501 25.1263 8.3501 24.6939C8.3501 24.2189 8.2439 23.8683 8.03498 23.6456C7.82251 23.4229 7.56401 23.3127 7.25712 23.3127C6.95612 23.3127 6.70584 23.4169 6.50282 23.6337C6.30097 23.8481 6.20066 24.1845 6.20066 24.6477Z" fill="white"/>
<path d="M10.0273 26.3835V22.9044H10.6317V23.3912C10.7591 23.2206 10.9256 23.0844 11.1321 22.9802C11.3411 22.8759 11.5783 22.8262 11.8427 22.8262C12.1366 22.8262 12.3822 22.8795 12.5699 22.9837C12.7587 23.0903 12.8909 23.242 12.9688 23.435C13.2864 23.0287 13.6948 22.8262 14.2012 22.8262C14.5966 22.8262 14.9023 22.9209 15.1136 23.1117C15.3284 23.3012 15.4335 23.595 15.4335 23.993V26.3823H14.7618V24.1896C14.7618 23.9539 14.7394 23.7857 14.6969 23.6814C14.6532 23.576 14.5729 23.4943 14.4573 23.4315C14.3416 23.3652 14.2059 23.3355 14.0512 23.3355C13.7727 23.3355 13.539 23.4161 13.3525 23.576C13.1672 23.7407 13.0739 24.0013 13.0739 24.3578V26.3811H12.3987V24.1209C12.3987 23.8579 12.3444 23.6637 12.2335 23.5322C12.1225 23.4019 11.9431 23.3355 11.6916 23.3355C11.5028 23.3355 11.3257 23.377 11.1664 23.467C11.0047 23.5523 10.8878 23.6814 10.8146 23.8461C10.7415 24.0167 10.7048 24.2595 10.7048 24.5746V26.3799H10.0273V26.3835Z" fill="white"/>
<path d="M16.5547 22.2616V21.584H17.2299V22.2616H16.5547ZM16.5547 26.3839V22.9048H17.2299V26.3839H16.5547Z" fill="white"/>
<path d="M18.2734 26.3842V22.9051H18.8837V23.4015C19.1776 23.0177 19.599 22.8281 20.1526 22.8281C20.3934 22.8281 20.6141 22.8637 20.8159 22.9383C21.0166 23.0153 21.1689 23.1136 21.268 23.2344C21.3672 23.3588 21.4392 23.5033 21.4793 23.6715C21.5041 23.7817 21.5159 23.9724 21.5159 24.2449V26.3842H20.8419V24.2698C20.8419 24.0257 20.8147 23.848 20.7616 23.7296C20.7097 23.6088 20.6165 23.514 20.4831 23.4441C20.3485 23.3719 20.1927 23.3387 20.0109 23.3387C19.7241 23.3387 19.475 23.4169 19.2673 23.5768C19.0572 23.7343 18.9522 24.0376 18.9522 24.4842V26.3842H18.2734Z" fill="white"/>
<path d="M22.6289 22.2616V21.584H23.3053V22.2616H22.6289ZM22.6289 26.3839V22.9048H23.3053V26.3839H22.6289Z" fill="white"/>
<path d="M24 25.3434L24.6669 25.251C24.7047 25.4856 24.8085 25.6644 24.982 25.7888C25.1532 25.912 25.3928 25.976 25.702 25.976C26.0113 25.976 26.2415 25.9203 26.3914 25.8078C26.5413 25.6988 26.6169 25.5673 26.6169 25.4204C26.6169 25.2901 26.5508 25.1823 26.4174 25.1077C26.3241 25.0532 26.0951 24.9892 25.7268 24.9087C25.2311 24.7985 24.8876 24.7037 24.6952 24.6232C24.5052 24.5438 24.36 24.4336 24.2596 24.2951C24.1605 24.1517 24.1109 23.9965 24.1109 23.8271C24.1109 23.6731 24.1523 23.5286 24.2337 23.3971C24.3152 23.2645 24.4261 23.1531 24.5666 23.0678C24.6716 22.9991 24.8156 22.9446 24.995 22.8949C25.1768 22.8475 25.3727 22.8262 25.5793 22.8262C25.8933 22.8262 26.1683 22.8641 26.4068 22.9434C26.6405 23.0216 26.8152 23.1294 26.9273 23.2645C27.0418 23.3971 27.1173 23.576 27.1586 23.8023L26.5 23.8781C26.4693 23.7004 26.3808 23.5606 26.2368 23.4587C26.0928 23.3604 25.8909 23.3107 25.6265 23.3107C25.3161 23.3107 25.0942 23.3545 24.962 23.4433C24.8298 23.5322 24.7625 23.6364 24.7625 23.7596C24.7625 23.8342 24.7896 23.9006 24.8463 23.9634C24.9006 24.0285 24.9868 24.0795 25.1036 24.1221C25.1733 24.1422 25.3727 24.1932 25.702 24.2737C26.1789 24.3827 26.5142 24.4763 26.703 24.5462C26.8931 24.6184 27.0406 24.7179 27.1492 24.8542C27.2566 24.9892 27.3097 25.1574 27.3097 25.3576C27.3097 25.5566 27.2448 25.7402 27.1138 25.9167C26.9816 26.0897 26.7927 26.2224 26.5437 26.3171C26.297 26.4119 26.0161 26.4593 25.7033 26.4593C25.1863 26.4593 24.7908 26.3645 24.5181 26.1773C24.249 25.9914 24.0744 25.713 24 25.3434Z" fill="white"/>
<path d="M29.5907 25.8544L29.6886 26.3745C29.4962 26.41 29.3251 26.4278 29.1764 26.4278C28.9297 26.4278 28.7408 26.3946 28.6038 26.3271C28.4705 26.2572 28.3761 26.1695 28.3218 26.0582C28.2663 25.9492 28.2368 25.7182 28.2368 25.364V23.3621H27.7422V22.9049H28.2368V21.9062H28.9096V22.9049H29.5907V23.3621H28.9096V25.3972C28.9096 25.5642 28.9214 25.672 28.9462 25.7206C28.9698 25.768 29.0076 25.8071 29.0607 25.8343C29.1161 25.8627 29.1929 25.8781 29.2932 25.8781C29.3664 25.8781 29.4668 25.8687 29.5907 25.8544Z" fill="white"/>
<path d="M33.1862 25.2612L33.8861 25.3371C33.7752 25.6948 33.571 25.9708 33.2747 26.1663C32.9761 26.3617 32.5948 26.46 32.1309 26.46C31.5478 26.46 31.0851 26.3025 30.7428 25.991C30.4016 25.6759 30.2305 25.2364 30.2305 24.6725C30.2305 24.0873 30.4029 23.6325 30.7475 23.3126C31.0934 22.9892 31.5407 22.8281 32.0919 22.8281C32.6267 22.8281 33.061 22.9857 33.3986 23.2996C33.7374 23.6182 33.9062 24.0636 33.9062 24.637C33.9062 24.6725 33.9038 24.7235 33.9038 24.7945H30.9293C30.9529 25.1748 31.0756 25.4685 31.2987 25.6711C31.523 25.876 31.8015 25.9767 32.1332 25.9767C32.3823 25.9767 32.5936 25.9211 32.7683 25.8073C32.9454 25.6912 33.0846 25.5112 33.1862 25.2612ZM30.967 24.31H33.1956C33.1637 24.0198 33.0799 23.7959 32.9395 23.6514C32.7235 23.4263 32.4437 23.3126 32.1002 23.3126C31.7898 23.3126 31.5313 23.4015 31.3176 23.5827C31.1063 23.7639 30.9883 24.0044 30.967 24.31Z" fill="white"/>
<path d="M34.5391 26.3835V22.9044H35.1457V23.4327C35.3027 23.1851 35.4456 23.0216 35.5778 22.9434C35.7076 22.8653 35.8516 22.8262 36.0098 22.8262C36.2376 22.8262 36.4713 22.889 36.7062 23.0133L36.4725 23.563C36.3073 23.4777 36.1431 23.435 35.9767 23.435C35.8303 23.435 35.697 23.4706 35.5778 23.5523C35.4609 23.6281 35.3771 23.7359 35.3275 23.8733C35.2532 24.0842 35.2166 24.3128 35.2166 24.5628V26.3835H34.5391Z" fill="white"/>
<path d="M39.8369 25.2612L40.5357 25.3371C40.4248 25.6948 40.2206 25.9708 39.9243 26.1663C39.6268 26.3617 39.2456 26.46 38.7817 26.46C38.1974 26.46 37.7335 26.3025 37.3912 25.991C37.0524 25.6759 36.8789 25.2364 36.8789 24.6725C36.8789 24.0873 37.0524 23.6325 37.3983 23.3126C37.7429 22.9892 38.1915 22.8281 38.7427 22.8281C39.275 22.8281 39.7118 22.9857 40.0494 23.2996C40.3882 23.6182 40.557 24.0636 40.557 24.637C40.557 24.6725 40.5546 24.7235 40.5534 24.7945H37.5777C37.6025 25.1748 37.7264 25.4685 37.9472 25.6711C38.1726 25.876 38.4488 25.9767 38.7828 25.9767C39.0295 25.9767 39.2432 25.9211 39.4179 25.8073C39.5949 25.6912 39.7342 25.5112 39.8369 25.2612ZM37.6155 24.31H39.8452C39.8145 24.0198 39.7307 23.7959 39.5891 23.6514C39.3742 23.4263 39.0945 23.3126 38.751 23.3126C38.4405 23.3126 38.1809 23.4015 37.9684 23.5827C37.7583 23.7639 37.6403 24.0044 37.6155 24.31Z" fill="white"/>
<path d="M43.9735 26.3831V25.9436C43.7209 26.2884 43.3491 26.4601 42.8581 26.4601C42.5394 26.4601 42.2478 26.3843 41.9799 26.2327C41.7143 26.0775 41.5078 25.8666 41.3626 25.5906C41.2139 25.3182 41.1406 25.0019 41.1406 24.6489C41.1406 24.3006 41.208 23.9867 41.3413 23.7012C41.4747 23.4193 41.673 23.2025 41.9397 23.0497C42.2041 22.9028 42.4992 22.827 42.8285 22.827C43.0693 22.827 43.283 22.872 43.4707 22.9573C43.6584 23.0473 43.8107 23.1623 43.9299 23.302V21.582H44.6015V26.3831H43.9735ZM41.8371 24.6477C41.8371 25.0907 41.9433 25.4224 42.1593 25.6463C42.3753 25.8666 42.6268 25.9756 42.9218 25.9756C43.2181 25.9756 43.4695 25.8678 43.6749 25.657C43.8827 25.4485 43.9865 25.1263 43.9865 24.6939C43.9865 24.2189 43.8815 23.8683 43.669 23.6456C43.4601 23.4229 43.2016 23.3127 42.8923 23.3127C42.5925 23.3127 42.3399 23.4169 42.1392 23.6337C41.9374 23.8481 41.8371 24.1845 41.8371 24.6477Z" fill="white"/>
<path d="M48.7283 26.3831H48.1016V21.582H48.7767V23.2926C49.0612 22.9798 49.4271 22.8258 49.8697 22.8258C50.1153 22.8258 50.3478 22.8673 50.5685 22.9526C50.7857 23.0391 50.9675 23.1611 51.108 23.3151C51.2484 23.4726 51.3594 23.6598 51.4408 23.8813C51.5211 24.104 51.5612 24.3385 51.5612 24.5885C51.5612 25.1855 51.3924 25.6463 51.0525 25.9721C50.7161 26.2966 50.31 26.4589 49.8367 26.4589C49.3657 26.4589 48.9963 26.2872 48.7295 25.9448L48.7283 26.3831ZM48.7201 24.6145C48.7201 25.0339 48.7862 25.3348 48.916 25.5196C49.1297 25.8252 49.4176 25.9768 49.7788 25.9768C50.0739 25.9768 50.3301 25.8631 50.5461 25.6404C50.7609 25.4177 50.8671 25.0825 50.8671 24.6394C50.8671 24.1845 50.7644 23.8493 50.5567 23.6349C50.3513 23.4181 50.0999 23.3127 49.8072 23.3127C49.5133 23.3127 49.2571 23.4217 49.0423 23.6479C48.8275 23.8694 48.7201 24.1928 48.7201 24.6145Z" fill="white"/>
<path d="M52.3494 27.7204L52.2738 27.1672C52.4226 27.2027 52.55 27.2205 52.6622 27.2205C52.8121 27.2205 52.9325 27.1968 53.0234 27.1565C53.1131 27.1115 53.1887 27.0475 53.2441 26.9717C53.2866 26.9125 53.3574 26.7668 53.4518 26.5311C53.4648 26.4991 53.4837 26.4517 53.5108 26.3901L52 22.9062H52.7271L53.5581 24.9188C53.6643 25.1759 53.7611 25.4412 53.8461 25.7244C53.924 25.4543 54.0149 25.1913 54.1235 24.9319L54.9781 22.9062H55.6521L54.1341 26.4398C53.9724 26.8236 53.8461 27.0878 53.7564 27.23C53.636 27.423 53.4979 27.5652 53.3433 27.6576C53.1886 27.7464 53.001 27.7903 52.7861 27.7903C52.6551 27.7903 52.5099 27.7701 52.3494 27.7204Z" fill="white"/>
<path d="M58.7148 26.3819V21.7715H60.4453C60.7474 21.7715 60.98 21.7857 61.1417 21.8153C61.3648 21.8532 61.5549 21.9255 61.7071 22.0297C61.8594 22.1363 61.9809 22.2856 62.0742 22.4751C62.1674 22.6647 62.2147 23.0461 62.2147 23.2735C62.2147 23.6656 62.0907 23.9997 61.8416 24.2686C61.5949 24.5398 61.1476 24.6761 60.4984 24.6761H59.3239V26.3819H58.7148ZM59.3228 24.1323H60.5067C60.8974 24.1323 61.1748 24.0577 61.3424 23.9132C61.5064 23.7687 61.5867 23.5602 61.5867 23.296C61.5867 23.1018 61.602 22.8731 61.4439 22.6291C61.3506 22.4858 61.2184 22.4005 61.0614 22.3567C60.9587 22.3294 60.7687 22.3152 60.4948 22.3152H59.3239L59.3228 24.1323Z" fill="white"/>
<path d="M66.5378 25.4619L67.2071 26.3823H66.4481L65.9629 25.7165C65.7847 25.4393 65.6395 25.2261 65.525 25.0804C65.4094 24.9323 65.3067 24.8305 65.217 24.7713C65.1273 24.7156 65.034 24.6729 64.9408 24.6492C64.8711 24.6338 64.759 24.6279 64.6032 24.6279H63.8997V26.3799H63.293V21.7695H65.3232C65.7328 21.7695 66.042 21.8098 66.2556 21.8927C66.4693 21.9768 66.6818 22.1758 66.8081 22.427C66.919 22.6485 66.9545 22.947 66.9545 23.2029C66.9545 23.5286 66.8801 23.82 66.67 24.0463C66.4587 24.269 66.1754 24.4194 65.7363 24.4822L66.5378 25.4619ZM63.9008 24.1185H65.2039C65.4813 24.1185 65.6985 24.0913 65.8555 24.0333C66.0101 23.9764 66.1306 23.8781 66.2132 23.7513C66.3065 23.6116 66.3572 23.4718 66.3631 23.2017C66.3701 22.8392 66.2545 22.6343 66.0975 22.4945C65.9393 22.3512 65.6903 22.2825 65.3503 22.2825H63.9008V24.1185Z" fill="white"/>
<path d="M68.1016 26.3819V21.7715H68.7082V26.3819H68.1016Z" fill="white"/>
<path d="M0.432246 17.4595C0.266994 17.4595 0.133573 17.3315 0.12649 17.1657C-0.0505654 12.457 1.55713 8.08592 4.65915 4.85084C7.66084 1.72238 11.6894 0 15.999 0C22.0024 0 27.5938 3.49331 30.2449 8.90327C30.3193 9.05253 30.2567 9.23259 30.108 9.31077C29.9557 9.3854 29.7751 9.31906 29.7019 9.17099C27.1523 3.96951 21.7734 0.607688 15.999 0.607688C11.8535 0.607688 7.98071 2.26372 5.09588 5.27255C2.11072 8.38561 0.562048 12.6027 0.732022 17.1444C0.739104 17.3114 0.609269 17.4535 0.442837 17.4595C0.439295 17.4595 0.434607 17.4595 0.432246 17.4595Z" fill="white"/>
<path d="M3.459 13.0247C3.44129 13.0247 3.42239 13.0235 3.40115 13.0187C3.23707 12.9903 3.13084 12.8292 3.16153 12.6657C4.47528 5.58198 10.2544 0.632812 17.2115 0.632812C19.1461 0.632812 21.1139 0.918299 22.4784 1.39924C22.6342 1.4561 22.7191 1.62668 22.6625 1.78778C22.607 1.94651 22.4359 2.02825 22.2765 1.97139C20.9734 1.51414 19.0824 1.2405 17.2115 1.2405C10.5495 1.2405 5.01592 5.98473 3.75647 12.7735C3.72932 12.9252 3.60182 13.0247 3.459 13.0247Z" fill="white"/>
<path d="M8.28417 17.4611C8.26056 17.4611 8.23573 17.4588 8.21213 17.4528C8.04805 17.4114 7.94774 17.2467 7.99023 17.0821C8.02564 16.9375 11.6942 2.57219 21.9824 1.24546C22.1441 1.22059 22.2999 1.34022 22.3223 1.50725C22.3436 1.67546 22.2256 1.8259 22.0579 1.84841C12.177 3.12657 8.61116 17.0904 8.57811 17.2289C8.54388 17.3699 8.41991 17.4611 8.28417 17.4611Z" fill="white"/>
<path d="M16.7679 17.2582C16.7242 17.2582 16.6805 17.2487 16.6392 17.2286C16.4881 17.1563 16.422 16.9763 16.494 16.8246C21.8836 5.36267 21.9438 1.67864 21.9438 1.6431C21.9438 1.47371 22.0796 1.33984 22.2472 1.33984C22.4148 1.33984 22.5517 1.47371 22.5517 1.6431C22.5517 1.79473 22.4868 5.50008 17.0441 17.0817C16.991 17.193 16.8824 17.2582 16.7679 17.2582Z" fill="white"/>
<path d="M25.481 15.1056C25.4503 15.1056 25.4173 15.0997 25.3866 15.0902C25.2284 15.0369 25.1422 14.8651 25.1941 14.704C25.2201 14.6247 27.8264 6.47952 22.6788 2.157C22.5513 2.05039 22.5324 1.85731 22.6422 1.73056C22.7496 1.59907 22.9408 1.5813 23.0671 1.69147C28.5358 6.28052 25.7973 14.8118 25.769 14.8983C25.7253 15.0262 25.6084 15.1056 25.481 15.1056Z" fill="white"/>
<path d="M28.5597 7.01207C28.5196 7.01207 28.4782 7.0026 28.4393 6.98601L14.1272 0.718421C13.9738 0.649715 13.9042 0.470839 13.9703 0.316844C14.0364 0.162849 14.217 0.094149 14.3716 0.159301L28.6789 6.42926C28.8335 6.4956 28.902 6.67684 28.8371 6.83083C28.7887 6.94455 28.6754 7.01207 28.5597 7.01207Z" fill="white"/>
<path d="M27.9556 12.5681C27.9155 12.5681 27.8765 12.5621 27.8364 12.5432L6.84699 3.52381C6.69354 3.45392 6.62389 3.27743 6.68763 3.12225C6.75491 2.96707 6.93198 2.89599 7.08661 2.96233L28.0748 11.9852C28.2283 12.0516 28.3014 12.2281 28.2353 12.3833C28.1846 12.4994 28.0748 12.5681 27.9556 12.5681Z" fill="white"/>
<path d="M19.647 17.4609C19.6092 17.4609 19.5691 17.4526 19.5277 17.436L1.74543 9.82392C1.59198 9.75759 1.52233 9.57635 1.58607 9.42236C1.65217 9.26836 1.83045 9.19847 1.9839 9.26125L19.7661 16.8781C19.9196 16.9444 19.9916 17.1221 19.9255 17.2761C19.8771 17.3922 19.7638 17.4609 19.647 17.4609Z" fill="white"/>
<path d="M15.3841 0.936134L15.1953 0.439798L17.4592 0.371094L17.5501 0.873349L15.3841 0.936134Z" fill="white"/>
<path d="M9.25797 51V45.4H9.91397L13.618 50H13.274V45.4H14.074V51H13.418L9.71397 46.4H10.058V51H9.25797ZM17.4542 51.048C17.0275 51.048 16.6488 50.9547 16.3182 50.768C15.9875 50.5813 15.7262 50.3253 15.5342 50C15.3422 49.6693 15.2462 49.296 15.2462 48.88C15.2462 48.4587 15.3422 48.0853 15.5342 47.76C15.7262 47.4347 15.9875 47.1813 16.3182 47C16.6488 46.8133 17.0275 46.72 17.4542 46.72C17.8755 46.72 18.2515 46.8133 18.5822 47C18.9182 47.1813 19.1795 47.4347 19.3662 47.76C19.5582 48.08 19.6542 48.4533 19.6542 48.88C19.6542 49.3013 19.5582 49.6747 19.3662 50C19.1795 50.3253 18.9182 50.5813 18.5822 50.768C18.2515 50.9547 17.8755 51.048 17.4542 51.048ZM17.4542 50.376C17.7262 50.376 17.9688 50.3147 18.1822 50.192C18.4008 50.0693 18.5715 49.896 18.6942 49.672C18.8168 49.4427 18.8782 49.1787 18.8782 48.88C18.8782 48.576 18.8168 48.3147 18.6942 48.096C18.5715 47.872 18.4008 47.6987 18.1822 47.576C17.9688 47.4533 17.7262 47.392 17.4542 47.392C17.1822 47.392 16.9395 47.4533 16.7262 47.576C16.5128 47.6987 16.3422 47.872 16.2142 48.096C16.0862 48.3147 16.0222 48.576 16.0222 48.88C16.0222 49.1787 16.0862 49.4427 16.2142 49.672C16.3422 49.896 16.5128 50.0693 16.7262 50.192C16.9395 50.3147 17.1822 50.376 17.4542 50.376ZM22.9803 46.72C23.3269 46.72 23.6309 46.7867 23.8923 46.92C24.1589 47.0533 24.3669 47.256 24.5163 47.528C24.6656 47.8 24.7403 48.144 24.7403 48.56V51H23.9723V48.648C23.9723 48.2373 23.8709 47.928 23.6683 47.72C23.4709 47.512 23.1909 47.408 22.8283 47.408C22.5563 47.408 22.3189 47.4613 22.1163 47.568C21.9136 47.6747 21.7563 47.832 21.6443 48.04C21.5376 48.248 21.4843 48.5067 21.4843 48.816V51H20.7163V46.76H21.4523V47.904L21.3323 47.6C21.4709 47.3227 21.6843 47.1067 21.9723 46.952C22.2603 46.7973 22.5963 46.72 22.9803 46.72ZM28.0096 51.048C27.5776 51.048 27.1909 50.9547 26.8496 50.768C26.5136 50.5813 26.2496 50.3253 26.0576 50C25.8656 49.6747 25.7696 49.3013 25.7696 48.88C25.7696 48.4587 25.8656 48.0853 26.0576 47.76C26.2496 47.4347 26.5136 47.1813 26.8496 47C27.1909 46.8133 27.5776 46.72 28.0096 46.72C28.3936 46.72 28.7349 46.7973 29.0336 46.952C29.3376 47.1013 29.5723 47.3253 29.7376 47.624L29.1536 48C29.0149 47.792 28.8443 47.64 28.6416 47.544C28.4443 47.4427 28.2309 47.392 28.0016 47.392C27.7243 47.392 27.4763 47.4533 27.2576 47.576C27.0389 47.6987 26.8656 47.872 26.7376 48.096C26.6096 48.3147 26.5456 48.576 26.5456 48.88C26.5456 49.184 26.6096 49.448 26.7376 49.672C26.8656 49.896 27.0389 50.0693 27.2576 50.192C27.4763 50.3147 27.7243 50.376 28.0016 50.376C28.2309 50.376 28.4443 50.328 28.6416 50.232C28.8443 50.1307 29.0149 49.976 29.1536 49.768L29.7376 50.136C29.5723 50.4293 29.3376 50.656 29.0336 50.816C28.7349 50.9707 28.3936 51.048 28.0096 51.048ZM32.4854 51.048C32.0587 51.048 31.6801 50.9547 31.3494 50.768C31.0187 50.5813 30.7574 50.3253 30.5654 50C30.3734 49.6693 30.2774 49.296 30.2774 48.88C30.2774 48.4587 30.3734 48.0853 30.5654 47.76C30.7574 47.4347 31.0187 47.1813 31.3494 47C31.6801 46.8133 32.0587 46.72 32.4854 46.72C32.9067 46.72 33.2827 46.8133 33.6134 47C33.9494 47.1813 34.2107 47.4347 34.3974 47.76C34.5894 48.08 34.6854 48.4533 34.6854 48.88C34.6854 49.3013 34.5894 49.6747 34.3974 50C34.2107 50.3253 33.9494 50.5813 33.6134 50.768C33.2827 50.9547 32.9067 51.048 32.4854 51.048ZM32.4854 50.376C32.7574 50.376 33.0001 50.3147 33.2134 50.192C33.4321 50.0693 33.6027 49.896 33.7254 49.672C33.8481 49.4427 33.9094 49.1787 33.9094 48.88C33.9094 48.576 33.8481 48.3147 33.7254 48.096C33.6027 47.872 33.4321 47.6987 33.2134 47.576C33.0001 47.4533 32.7574 47.392 32.4854 47.392C32.2134 47.392 31.9707 47.4533 31.7574 47.576C31.5441 47.6987 31.3734 47.872 31.2454 48.096C31.1174 48.3147 31.0534 48.576 31.0534 48.88C31.0534 49.1787 31.1174 49.4427 31.2454 49.672C31.3734 49.896 31.5441 50.0693 31.7574 50.192C31.9707 50.3147 32.2134 50.376 32.4854 50.376ZM38.0115 46.72C38.3582 46.72 38.6622 46.7867 38.9235 46.92C39.1902 47.0533 39.3982 47.256 39.5475 47.528C39.6969 47.8 39.7715 48.144 39.7715 48.56V51H39.0035V48.648C39.0035 48.2373 38.9022 47.928 38.6995 47.72C38.5022 47.512 38.2222 47.408 37.8595 47.408C37.5875 47.408 37.3502 47.4613 37.1475 47.568C36.9449 47.6747 36.7875 47.832 36.6755 48.04C36.5689 48.248 36.5155 48.5067 36.5155 48.816V51H35.7475V46.76H36.4835V47.904L36.3635 47.6C36.5022 47.3227 36.7155 47.1067 37.0035 46.952C37.2915 46.7973 37.6275 46.72 38.0115 46.72ZM42.2267 51L40.3707 46.76H41.1707L42.8187 50.6H42.4347L44.1147 46.76H44.8667L43.0107 51H42.2267ZM47.3543 51.048C46.9009 51.048 46.5009 50.9547 46.1543 50.768C45.8129 50.5813 45.5463 50.3253 45.3543 50C45.1676 49.6747 45.0743 49.3013 45.0743 48.88C45.0743 48.4587 45.1649 48.0853 45.3463 47.76C45.5329 47.4347 45.7863 47.1813 46.1063 47C46.4316 46.8133 46.7969 46.72 47.2023 46.72C47.6129 46.72 47.9756 46.8107 48.2903 46.992C48.6049 47.1733 48.8503 47.4293 49.0263 47.76C49.2076 48.0853 49.2983 48.4667 49.2983 48.904C49.2983 48.936 49.2956 48.9733 49.2903 49.016C49.2903 49.0587 49.2876 49.0987 49.2823 49.136H45.6743V48.584H48.8823L48.5703 48.776C48.5756 48.504 48.5196 48.2613 48.4023 48.048C48.2849 47.8347 48.1223 47.6693 47.9143 47.552C47.7116 47.4293 47.4743 47.368 47.2023 47.368C46.9356 47.368 46.6983 47.4293 46.4903 47.552C46.2823 47.6693 46.1196 47.8373 46.0023 48.056C45.8849 48.2693 45.8263 48.5147 45.8263 48.792V48.92C45.8263 49.2027 45.8903 49.456 46.0183 49.68C46.1516 49.8987 46.3356 50.0693 46.5703 50.192C46.8049 50.3147 47.0743 50.376 47.3783 50.376C47.6289 50.376 47.8556 50.3333 48.0583 50.248C48.2663 50.1627 48.4476 50.0347 48.6023 49.864L49.0263 50.36C48.8343 50.584 48.5943 50.7547 48.3063 50.872C48.0236 50.9893 47.7063 51.048 47.3543 51.048ZM52.6287 46.72C52.9754 46.72 53.2794 46.7867 53.5407 46.92C53.8074 47.0533 54.0154 47.256 54.1647 47.528C54.3141 47.8 54.3887 48.144 54.3887 48.56V51H53.6207V48.648C53.6207 48.2373 53.5194 47.928 53.3167 47.72C53.1194 47.512 52.8394 47.408 52.4767 47.408C52.2047 47.408 51.9674 47.4613 51.7647 47.568C51.5621 47.6747 51.4047 47.832 51.2927 48.04C51.1861 48.248 51.1327 48.5067 51.1327 48.816V51H50.3647V46.76H51.1007V47.904L50.9807 47.6C51.1194 47.3227 51.3327 47.1067 51.6207 46.952C51.9087 46.7973 52.2447 46.72 52.6287 46.72ZM57.266 51.048C56.8394 51.048 56.5087 50.9333 56.274 50.704C56.0394 50.4747 55.922 50.1467 55.922 49.72V45.832H56.69V49.688C56.69 49.9173 56.746 50.0933 56.858 50.216C56.9754 50.3387 57.1407 50.4 57.354 50.4C57.594 50.4 57.794 50.3333 57.954 50.2L58.194 50.752C58.0767 50.8533 57.9354 50.928 57.77 50.976C57.61 51.024 57.442 51.048 57.266 51.048ZM55.202 47.392V46.76H57.906V47.392H55.202ZM59.1225 51V46.76H59.8905V51H59.1225ZM59.5065 45.944C59.3572 45.944 59.2319 45.896 59.1305 45.8C59.0345 45.704 58.9865 45.5867 58.9865 45.448C58.9865 45.304 59.0345 45.184 59.1305 45.088C59.2319 44.992 59.3572 44.944 59.5065 44.944C59.6559 44.944 59.7785 44.992 59.8745 45.088C59.9759 45.1787 60.0265 45.2933 60.0265 45.432C60.0265 45.576 59.9785 45.6987 59.8825 45.8C59.7865 45.896 59.6612 45.944 59.5065 45.944ZM63.1729 51.048C62.7462 51.048 62.3676 50.9547 62.0369 50.768C61.7062 50.5813 61.4449 50.3253 61.2529 50C61.0609 49.6693 60.9649 49.296 60.9649 48.88C60.9649 48.4587 61.0609 48.0853 61.2529 47.76C61.4449 47.4347 61.7062 47.1813 62.0369 47C62.3676 46.8133 62.7462 46.72 63.1729 46.72C63.5942 46.72 63.9702 46.8133 64.3009 47C64.6369 47.1813 64.8982 47.4347 65.0849 47.76C65.2769 48.08 65.3729 48.4533 65.3729 48.88C65.3729 49.3013 65.2769 49.6747 65.0849 50C64.8982 50.3253 64.6369 50.5813 64.3009 50.768C63.9702 50.9547 63.5942 51.048 63.1729 51.048ZM63.1729 50.376C63.4449 50.376 63.6876 50.3147 63.9009 50.192C64.1196 50.0693 64.2902 49.896 64.4129 49.672C64.5356 49.4427 64.5969 49.1787 64.5969 48.88C64.5969 48.576 64.5356 48.3147 64.4129 48.096C64.2902 47.872 64.1196 47.6987 63.9009 47.576C63.6876 47.4533 63.4449 47.392 63.1729 47.392C62.9009 47.392 62.6582 47.4533 62.4449 47.576C62.2316 47.6987 62.0609 47.872 61.9329 48.096C61.8049 48.3147 61.7409 48.576 61.7409 48.88C61.7409 49.1787 61.8049 49.4427 61.9329 49.672C62.0609 49.896 62.2316 50.0693 62.4449 50.192C62.6582 50.3147 62.9009 50.376 63.1729 50.376ZM68.699 46.72C69.0457 46.72 69.3497 46.7867 69.611 46.92C69.8777 47.0533 70.0857 47.256 70.235 47.528C70.3844 47.8 70.459 48.144 70.459 48.56V51H69.691V48.648C69.691 48.2373 69.5897 47.928 69.387 47.72C69.1897 47.512 68.9097 47.408 68.547 47.408C68.275 47.408 68.0377 47.4613 67.835 47.568C67.6324 47.6747 67.475 47.832 67.363 48.04C67.2564 48.248 67.203 48.5067 67.203 48.816V51H66.435V46.76H67.171V47.904L67.051 47.6C67.1897 47.3227 67.403 47.1067 67.691 46.952C67.979 46.7973 68.315 46.72 68.699 46.72ZM74.5123 51V50.104L74.4723 49.936V48.408C74.4723 48.0827 74.3763 47.832 74.1843 47.656C73.9977 47.4747 73.715 47.384 73.3363 47.384C73.0857 47.384 72.8403 47.4267 72.6003 47.512C72.3603 47.592 72.1577 47.7013 71.9923 47.84L71.6723 47.264C71.891 47.088 72.1523 46.9547 72.4563 46.864C72.7657 46.768 73.0883 46.72 73.4243 46.72C74.0057 46.72 74.4537 46.8613 74.7683 47.144C75.083 47.4267 75.2403 47.8587 75.2403 48.44V51H74.5123ZM73.1203 51.048C72.8057 51.048 72.5283 50.9947 72.2883 50.888C72.0537 50.7813 71.8723 50.6347 71.7443 50.448C71.6163 50.256 71.5523 50.04 71.5523 49.8C71.5523 49.5707 71.6057 49.3627 71.7123 49.176C71.8243 48.9893 72.003 48.84 72.2483 48.728C72.499 48.616 72.835 48.56 73.2563 48.56H74.6003V49.112H73.2883C72.9043 49.112 72.6457 49.176 72.5123 49.304C72.379 49.432 72.3123 49.5867 72.3123 49.768C72.3123 49.976 72.395 50.144 72.5603 50.272C72.7257 50.3947 72.955 50.456 73.2483 50.456C73.5363 50.456 73.787 50.392 74.0003 50.264C74.219 50.136 74.3763 49.9493 74.4723 49.704L74.6243 50.232C74.523 50.4827 74.3443 50.6827 74.0883 50.832C73.8323 50.976 73.5097 51.048 73.1203 51.048ZM76.6616 51V45.064H77.4296V51H76.6616ZM81.1564 51V45.4H81.8124L84.3244 49.632H83.9724L86.4524 45.4H87.1084L87.1164 51H86.3484L86.3404 46.608H86.5244L84.3164 50.32H83.9484L81.7244 46.608H81.9244V51H81.1564ZM91.317 51V50.104L91.277 49.936V48.408C91.277 48.0827 91.181 47.832 90.989 47.656C90.8024 47.4747 90.5197 47.384 90.141 47.384C89.8904 47.384 89.645 47.4267 89.405 47.512C89.165 47.592 88.9624 47.7013 88.797 47.84L88.477 47.264C88.6957 47.088 88.957 46.9547 89.261 46.864C89.5704 46.768 89.893 46.72 90.229 46.72C90.8104 46.72 91.2584 46.8613 91.573 47.144C91.8877 47.4267 92.045 47.8587 92.045 48.44V51H91.317ZM89.925 51.048C89.6104 51.048 89.333 50.9947 89.093 50.888C88.8584 50.7813 88.677 50.6347 88.549 50.448C88.421 50.256 88.357 50.04 88.357 49.8C88.357 49.5707 88.4104 49.3627 88.517 49.176C88.629 48.9893 88.8077 48.84 89.053 48.728C89.3037 48.616 89.6397 48.56 90.061 48.56H91.405V49.112H90.093C89.709 49.112 89.4504 49.176 89.317 49.304C89.1837 49.432 89.117 49.5867 89.117 49.768C89.117 49.976 89.1997 50.144 89.365 50.272C89.5304 50.3947 89.7597 50.456 90.053 50.456C90.341 50.456 90.5917 50.392 90.805 50.264C91.0237 50.136 91.181 49.9493 91.277 49.704L91.429 50.232C91.3277 50.4827 91.149 50.6827 90.893 50.832C90.637 50.976 90.3144 51.048 89.925 51.048ZM95.3143 51.048C94.8823 51.048 94.4956 50.9547 94.1543 50.768C93.8183 50.5813 93.5543 50.3253 93.3623 50C93.1703 49.6747 93.0743 49.3013 93.0743 48.88C93.0743 48.4587 93.1703 48.0853 93.3623 47.76C93.5543 47.4347 93.8183 47.1813 94.1543 47C94.4956 46.8133 94.8823 46.72 95.3143 46.72C95.6983 46.72 96.0396 46.7973 96.3383 46.952C96.6423 47.1013 96.8769 47.3253 97.0423 47.624L96.4583 48C96.3196 47.792 96.1489 47.64 95.9463 47.544C95.7489 47.4427 95.5356 47.392 95.3063 47.392C95.0289 47.392 94.7809 47.4533 94.5623 47.576C94.3436 47.6987 94.1703 47.872 94.0423 48.096C93.9143 48.3147 93.8503 48.576 93.8503 48.88C93.8503 49.184 93.9143 49.448 94.0423 49.672C94.1703 49.896 94.3436 50.0693 94.5623 50.192C94.7809 50.3147 95.0289 50.376 95.3063 50.376C95.5356 50.376 95.7489 50.328 95.9463 50.232C96.1489 50.1307 96.3196 49.976 96.4583 49.768L97.0423 50.136C96.8769 50.4293 96.6423 50.656 96.3383 50.816C96.0396 50.9707 95.6983 51.048 95.3143 51.048ZM100.246 46.72C100.593 46.72 100.897 46.7867 101.158 46.92C101.425 47.0533 101.633 47.256 101.782 47.528C101.931 47.8 102.006 48.144 102.006 48.56V51H101.238V48.648C101.238 48.2373 101.137 47.928 100.934 47.72C100.737 47.512 100.457 47.408 100.094 47.408C99.8219 47.408 99.5846 47.4613 99.3819 47.568C99.1792 47.6747 99.0219 47.832 98.9099 48.04C98.8032 48.248 98.7499 48.5067 98.7499 48.816V51H97.9819V45.064H98.7499V47.904L98.5979 47.6C98.7366 47.3227 98.9499 47.1067 99.2379 46.952C99.5259 46.7973 99.8619 46.72 100.246 46.72ZM103.427 51V46.76H104.195V51H103.427ZM103.811 45.944C103.662 45.944 103.537 45.896 103.435 45.8C103.339 45.704 103.291 45.5867 103.291 45.448C103.291 45.304 103.339 45.184 103.435 45.088C103.537 44.992 103.662 44.944 103.811 44.944C103.961 44.944 104.083 44.992 104.179 45.088C104.281 45.1787 104.331 45.2933 104.331 45.432C104.331 45.576 104.283 45.6987 104.187 45.8C104.091 45.896 103.966 45.944 103.811 45.944ZM107.926 46.72C108.272 46.72 108.576 46.7867 108.838 46.92C109.104 47.0533 109.312 47.256 109.462 47.528C109.611 47.8 109.686 48.144 109.686 48.56V51H108.918V48.648C108.918 48.2373 108.816 47.928 108.614 47.72C108.416 47.512 108.136 47.408 107.774 47.408C107.502 47.408 107.264 47.4613 107.062 47.568C106.859 47.6747 106.702 47.832 106.59 48.04C106.483 48.248 106.43 48.5067 106.43 48.816V51H105.662V46.76H106.398V47.904L106.278 47.6C106.416 47.3227 106.63 47.1067 106.918 46.952C107.206 46.7973 107.542 46.72 107.926 46.72ZM111.107 51V46.76H111.875V51H111.107ZM111.491 45.944C111.342 45.944 111.216 45.896 111.115 45.8C111.019 45.704 110.971 45.5867 110.971 45.448C110.971 45.304 111.019 45.184 111.115 45.088C111.216 44.992 111.342 44.944 111.491 44.944C111.64 44.944 111.763 44.992 111.859 45.088C111.96 45.1787 112.011 45.2933 112.011 45.432C112.011 45.576 111.963 45.6987 111.867 45.8C111.771 45.896 111.646 45.944 111.491 45.944ZM115.605 46.72C115.952 46.72 116.256 46.7867 116.517 46.92C116.784 47.0533 116.992 47.256 117.141 47.528C117.291 47.8 117.365 48.144 117.365 48.56V51H116.597V48.648C116.597 48.2373 116.496 47.928 116.293 47.72C116.096 47.512 115.816 47.408 115.453 47.408C115.181 47.408 114.944 47.4613 114.741 47.568C114.539 47.6747 114.381 47.832 114.269 48.04C114.163 48.248 114.109 48.5067 114.109 48.816V51H113.341V46.76H114.077V47.904L113.957 47.6C114.096 47.3227 114.309 47.1067 114.597 46.952C114.885 46.7973 115.221 46.72 115.605 46.72ZM120.643 52.6C120.253 52.6 119.875 52.544 119.507 52.432C119.144 52.3253 118.848 52.1707 118.619 51.968L118.987 51.376C119.184 51.5467 119.427 51.68 119.715 51.776C120.003 51.8773 120.304 51.928 120.619 51.928C121.12 51.928 121.488 51.8107 121.723 51.576C121.957 51.3413 122.075 50.984 122.075 50.504V49.608L122.155 48.768L122.115 47.92V46.76H122.843V50.424C122.843 51.1707 122.656 51.72 122.283 52.072C121.909 52.424 121.363 52.6 120.643 52.6ZM120.547 50.824C120.136 50.824 119.768 50.7387 119.443 50.568C119.123 50.392 118.867 50.1493 118.675 49.84C118.488 49.5307 118.395 49.1733 118.395 48.768C118.395 48.3573 118.488 48 118.675 47.696C118.867 47.3867 119.123 47.1467 119.443 46.976C119.768 46.8053 120.136 46.72 120.547 46.72C120.909 46.72 121.24 46.7947 121.539 46.944C121.837 47.088 122.075 47.312 122.251 47.616C122.432 47.92 122.523 48.304 122.523 48.768C122.523 49.2267 122.432 49.608 122.251 49.912C122.075 50.216 121.837 50.4453 121.539 50.6C121.24 50.7493 120.909 50.824 120.547 50.824ZM120.635 50.152C120.917 50.152 121.168 50.0933 121.387 49.976C121.605 49.8587 121.776 49.696 121.899 49.488C122.027 49.28 122.091 49.04 122.091 48.768C122.091 48.496 122.027 48.256 121.899 48.048C121.776 47.84 121.605 47.68 121.387 47.568C121.168 47.4507 120.917 47.392 120.635 47.392C120.352 47.392 120.099 47.4507 119.875 47.568C119.656 47.68 119.483 47.84 119.355 48.048C119.232 48.256 119.171 48.496 119.171 48.768C119.171 49.04 119.232 49.28 119.355 49.488C119.483 49.696 119.656 49.8587 119.875 49.976C120.099 50.0933 120.352 50.152 120.635 50.152Z" fill="white"/>
<path d="M23.1472 38L26.3172 31H27.3072L30.4872 38H29.4372L26.6072 31.56H27.0072L24.1772 38H23.1472ZM24.4972 36.25L24.7672 35.45H28.7072L28.9972 36.25H24.4972ZM36.5638 38.08C36.0305 38.08 35.5371 37.9933 35.0838 37.82C34.6371 37.64 34.2471 37.39 33.9138 37.07C33.5871 36.7433 33.3305 36.3633 33.1438 35.93C32.9571 35.4967 32.8638 35.02 32.8638 34.5C32.8638 33.98 32.9571 33.5033 33.1438 33.07C33.3305 32.6367 33.5905 32.26 33.9238 31.94C34.2571 31.6133 34.6471 31.3633 35.0938 31.19C35.5471 31.01 36.0405 30.92 36.5738 30.92C37.1138 30.92 37.6105 31.0133 38.0638 31.2C38.5238 31.38 38.9138 31.65 39.2338 32.01L38.5838 32.64C38.3171 32.36 38.0171 32.1533 37.6838 32.02C37.3505 31.88 36.9938 31.81 36.6138 31.81C36.2205 31.81 35.8538 31.8767 35.5138 32.01C35.1805 32.1433 34.8905 32.33 34.6438 32.57C34.3971 32.81 34.2038 33.0967 34.0638 33.43C33.9305 33.7567 33.8638 34.1133 33.8638 34.5C33.8638 34.8867 33.9305 35.2467 34.0638 35.58C34.2038 35.9067 34.3971 36.19 34.6438 36.43C34.8905 36.67 35.1805 36.8567 35.5138 36.99C35.8538 37.1233 36.2205 37.19 36.6138 37.19C36.9938 37.19 37.3505 37.1233 37.6838 36.99C38.0171 36.85 38.3171 36.6367 38.5838 36.35L39.2338 36.98C38.9138 37.34 38.5238 37.6133 38.0638 37.8C37.6105 37.9867 37.1105 38.08 36.5638 38.08ZM45.6439 38.08C45.1105 38.08 44.6172 37.9933 44.1639 37.82C43.7172 37.64 43.3272 37.39 42.9939 37.07C42.6672 36.7433 42.4105 36.3633 42.2239 35.93C42.0372 35.4967 41.9439 35.02 41.9439 34.5C41.9439 33.98 42.0372 33.5033 42.2239 33.07C42.4105 32.6367 42.6705 32.26 43.0039 31.94C43.3372 31.6133 43.7272 31.3633 44.1739 31.19C44.6272 31.01 45.1205 30.92 45.6539 30.92C46.1939 30.92 46.6905 31.0133 47.1439 31.2C47.6039 31.38 47.9939 31.65 48.3139 32.01L47.6639 32.64C47.3972 32.36 47.0972 32.1533 46.7639 32.02C46.4305 31.88 46.0739 31.81 45.6939 31.81C45.3005 31.81 44.9339 31.8767 44.5939 32.01C44.2605 32.1433 43.9705 32.33 43.7239 32.57C43.4772 32.81 43.2839 33.0967 43.1439 33.43C43.0105 33.7567 42.9439 34.1133 42.9439 34.5C42.9439 34.8867 43.0105 35.2467 43.1439 35.58C43.2839 35.9067 43.4772 36.19 43.7239 36.43C43.9705 36.67 44.2605 36.8567 44.5939 36.99C44.9339 37.1233 45.3005 37.19 45.6939 37.19C46.0739 37.19 46.4305 37.1233 46.7639 36.99C47.0972 36.85 47.3972 36.6367 47.6639 36.35L48.3139 36.98C47.9939 37.34 47.6039 37.6133 47.1439 37.8C46.6905 37.9867 46.1905 38.08 45.6439 38.08ZM51.7404 38V31H54.4704C55.0838 31 55.6071 31.0967 56.0404 31.29C56.4738 31.4833 56.8071 31.7633 57.0404 32.13C57.2738 32.4967 57.3904 32.9333 57.3904 33.44C57.3904 33.9467 57.2738 34.3833 57.0404 34.75C56.8071 35.11 56.4738 35.3867 56.0404 35.58C55.6071 35.7733 55.0838 35.87 54.4704 35.87H52.2904L52.7404 35.41V38H51.7404ZM56.4204 38L54.6404 35.46H55.7104L57.5104 38H56.4204ZM52.7404 35.51L52.2904 35.02H54.4404C55.0804 35.02 55.5638 34.8833 55.8904 34.61C56.2238 34.33 56.3904 33.94 56.3904 33.44C56.3904 32.94 56.2238 32.5533 55.8904 32.28C55.5638 32.0067 55.0804 31.87 54.4404 31.87H52.2904L52.7404 31.37V35.51ZM61.9161 34.02H65.5161V34.87H61.9161V34.02ZM62.0061 37.13H66.0861V38H61.0061V31H65.9461V31.87H62.0061V37.13ZM69.7053 38V31H72.6553C73.4019 31 74.0586 31.1467 74.6253 31.44C75.1986 31.7333 75.6419 32.1433 75.9553 32.67C76.2753 33.1967 76.4353 33.8067 76.4353 34.5C76.4353 35.1933 76.2753 35.8033 75.9553 36.33C75.6419 36.8567 75.1986 37.2667 74.6253 37.56C74.0586 37.8533 73.4019 38 72.6553 38H69.7053ZM70.7053 37.13H72.5953C73.1753 37.13 73.6753 37.02 74.0953 36.8C74.5219 36.58 74.8519 36.2733 75.0853 35.88C75.3186 35.48 75.4353 35.02 75.4353 34.5C75.4353 33.9733 75.3186 33.5133 75.0853 33.12C74.8519 32.7267 74.5219 32.42 74.0953 32.2C73.6753 31.98 73.1753 31.87 72.5953 31.87H70.7053V37.13ZM79.967 38V31H80.967V38H79.967ZM86.4527 38V31.87H84.0527V31H89.8427V31.87H87.4427V38H86.4527ZM93.8418 34.02H97.4418V34.87H93.8418V34.02ZM93.9318 37.13H98.0118V38H92.9318V31H97.8718V31.87H93.9318V37.13ZM101.631 38V31H104.581C105.328 31 105.984 31.1467 106.551 31.44C107.124 31.7333 107.568 32.1433 107.881 32.67C108.201 33.1967 108.361 33.8067 108.361 34.5C108.361 35.1933 108.201 35.8033 107.881 36.33C107.568 36.8567 107.124 37.2667 106.551 37.56C105.984 37.8533 105.328 38 104.581 38H101.631ZM102.631 37.13H104.521C105.101 37.13 105.601 37.02 106.021 36.8C106.448 36.58 106.778 36.2733 107.011 35.88C107.244 35.48 107.361 35.02 107.361 34.5C107.361 33.9733 107.244 33.5133 107.011 33.12C106.778 32.7267 106.448 32.42 106.021 32.2C105.601 31.98 105.101 31.87 104.521 31.87H102.631V37.13Z" fill="white"/>
<path d="M23.1572 40.5H108.841V41H23.1572V40.5Z" fill="white"/>
</svg>
