<svg width="132" height="53" viewBox="0 0 132 53" fill="none" xmlns="http://www.w3.org/2000/svg">
<path d="M27.4492 18.4502L35.4816 0.9375H38.815L41.7683 13.3281L47.4518 0.9375H51.6173L43.612 18.4502H39.2942L36.7435 7.1482L31.6147 18.4502H27.4492Z" fill="white"/>
<path d="M61.2123 7.44906L60.517 9.12048C59.5574 6.59972 55.1641 7.2382 55.1641 7.2382C49.1406 7.72862 47.9095 13.6408 47.9095 13.6408C46.9251 18.5663 51.237 18.9287 53.3852 18.7214C55.9266 18.4715 57.5885 17.0393 57.5885 17.0393L57.0101 18.4466H61.1379L65.3164 7.44788L61.2123 7.44906ZM55.3777 15.5847C53.0559 15.85 51.931 15.0374 52.0325 13.7972C52.0325 13.7972 52.2214 11.6164 54.5939 10.6545C56.865 9.7341 59.1525 10.324 59.267 11.7834C59.3744 13.1551 58.3593 15.2435 55.3777 15.5847Z" fill="white"/>
<path d="M108.88 7.44906L108.184 9.12048C107.225 6.59972 102.83 7.2382 102.83 7.2382C96.8092 7.72862 95.5781 13.6408 95.5781 13.6408C94.5913 18.5663 98.9044 18.9287 101.053 18.7214C103.594 18.4715 105.257 17.0393 105.257 17.0393L104.675 18.4466H108.806L112.983 7.44788L108.88 7.44906ZM103.047 15.5847C100.726 15.85 99.5984 15.0374 99.6987 13.7972C99.6987 13.7972 99.89 11.6164 102.264 10.6545C104.535 9.7341 106.822 10.324 106.936 11.7834C107.042 13.1551 106.026 15.2435 103.047 15.5847Z" fill="white"/>
<path d="M79.7999 2.52267L77.2043 9.12073C76.2447 6.59996 71.8525 7.23845 71.8525 7.23845C65.8291 7.72886 64.5967 13.6411 64.5967 13.6411C63.6135 18.5665 67.9254 18.929 70.0725 18.7217C72.6162 18.4717 74.2781 17.0396 74.2781 17.0396L73.6974 18.4469H77.8252L83.9194 2.52148L79.7999 2.52267ZM72.1145 15.5861C69.7939 15.8515 68.6666 15.0389 68.7681 13.7986C68.7681 13.7986 68.957 11.6178 71.3307 10.6559C73.6018 9.73553 75.8893 10.3254 76.0038 11.7848C76.1101 13.1566 75.0926 15.245 72.1145 15.5861Z" fill="white"/>
<path d="M93.5591 11.3313L96.4121 9.12324C96.4121 9.12324 94.6935 6.41294 88.709 7.32388C82.7269 8.23718 81.4567 12.3228 81.2809 12.9305C81.1026 13.5405 79.8078 17.6758 84.7335 18.601C90.3875 19.6647 93.3584 17.2079 93.3584 17.2079L92.171 14.5971C92.171 14.5971 89.9744 16.0554 86.9314 15.4939C83.7149 14.9028 85.7321 10.4654 89.5824 10.3647C89.5824 10.3647 92.3977 10.1633 93.5591 11.3313Z" fill="white"/>
<path d="M124.293 7.16823C121.037 6.85551 118.649 8.83729 118.649 8.83729L119.142 7.45016H115.013L108.688 24.0436H112.874L115.658 16.8012C115.658 16.8012 116.196 19.3705 121.356 18.6396C125.429 18.0639 127.457 15.5905 128.251 12.7618C129.136 9.61319 127.65 7.49281 124.293 7.16823ZM120.221 15.587C117.9 15.8523 116.774 15.0397 116.877 13.7995C116.877 13.7995 117.065 11.6187 119.438 10.6568C121.709 9.73638 123.996 10.3263 124.11 11.7857C124.218 13.1574 123.201 15.2458 120.221 15.587Z" fill="white"/>
<path d="M128.605 6.70827L128.949 6.67628C128.97 6.79237 129.013 6.87529 129.074 6.92859C129.138 6.9819 129.22 7.00915 129.329 7.00915C129.444 7.00915 129.527 6.98427 129.585 6.93689C129.643 6.88832 129.671 6.83264 129.671 6.76749C129.671 6.72603 129.658 6.69287 129.635 6.66325C129.611 6.63364 129.567 6.60639 129.51 6.58507C129.468 6.57441 129.374 6.54835 129.227 6.50926C129.037 6.46425 128.906 6.40501 128.83 6.33631C128.725 6.24154 128.67 6.1219 128.67 5.98568C128.67 5.89684 128.694 5.81273 128.745 5.73574C128.795 5.65637 128.867 5.59951 128.963 5.55805C129.06 5.51659 129.174 5.5 129.307 5.5C129.526 5.5 129.69 5.5462 129.801 5.64097C129.912 5.74047 129.97 5.86722 129.975 6.02713L129.623 6.04372C129.608 5.95369 129.575 5.88854 129.525 5.84945C129.477 5.80799 129.401 5.78904 129.303 5.78904C129.202 5.78904 129.12 5.81155 129.061 5.85301C129.027 5.87907 129.006 5.9146 129.006 5.96317C129.006 6.00463 129.026 6.03898 129.06 6.06741C129.104 6.10414 129.212 6.14322 129.381 6.18587C129.553 6.22733 129.681 6.26878 129.762 6.31024C129.844 6.35407 129.907 6.41449 129.956 6.48793C129.999 6.56256 130.024 6.65496 130.024 6.76749C130.024 6.86818 129.997 6.95939 129.942 7.04823C129.886 7.13471 129.808 7.19986 129.707 7.24132C129.605 7.28633 129.479 7.30647 129.327 7.30647C129.107 7.30647 128.937 7.25672 128.82 7.15248C128.7 7.05298 128.629 6.90491 128.605 6.70827Z" fill="white"/>
<path d="M130.316 7.2734V5.52734H130.622L131.158 6.27837L131.676 5.52734H131.998V7.2734H131.673V6.14925L131.157 6.80787L130.642 6.14925V7.2734H130.316Z" fill="white"/>
<path d="M0 26.3831L2.11406 21.582H2.89899L5.15231 26.3831H4.32366L3.67922 24.9273H1.37749L0.771954 26.3831H0ZM1.58994 24.4108H3.4561L2.88011 23.0805C2.70542 22.6789 2.57555 22.3461 2.49057 22.0855C2.42093 22.3935 2.32176 22.7003 2.1931 23.0011L1.58994 24.4108Z" fill="white"/>
<path d="M8.33829 26.3831V25.9436C8.08451 26.2883 7.71506 26.4601 7.2252 26.4601C6.9065 26.4601 6.61264 26.3843 6.34706 26.2327C6.07911 26.0775 5.87488 25.8666 5.72733 25.5906C5.58215 25.3182 5.50781 25.0019 5.50781 24.6489C5.50781 24.3006 5.57388 23.9867 5.70608 23.7012C5.8371 23.4193 6.03777 23.2025 6.30217 23.0497C6.56894 22.9028 6.8664 22.827 7.19336 22.827C7.43297 22.827 7.64778 22.872 7.83664 22.9573C8.02432 23.0473 8.17662 23.1622 8.29347 23.302V21.582H8.96745V26.3831H8.33829ZM6.20066 24.6477C6.20066 25.0907 6.30927 25.4224 6.52292 25.6463C6.73774 25.8666 6.99388 25.9756 7.28543 25.9756C7.5817 25.9756 7.83428 25.8678 8.03966 25.6569C8.24623 25.4485 8.3501 25.1263 8.3501 24.6939C8.3501 24.2189 8.24391 23.8682 8.03498 23.6456C7.82251 23.4229 7.56401 23.3127 7.25712 23.3127C6.95612 23.3127 6.70584 23.4169 6.50282 23.6337C6.30097 23.8481 6.20066 24.1845 6.20066 24.6477Z" fill="white"/>
<path d="M10.0273 26.3815V22.9024H10.6317V23.3893C10.7591 23.2187 10.9256 23.0825 11.1321 22.9782C11.3411 22.874 11.5783 22.8242 11.8427 22.8242C12.1366 22.8242 12.3822 22.8775 12.5699 22.9818C12.7587 23.0884 12.8909 23.24 12.9688 23.4331C13.2864 23.0268 13.6948 22.8242 14.2012 22.8242C14.5966 22.8242 14.9023 22.919 15.1136 23.1097C15.3284 23.2992 15.4335 23.593 15.4335 23.991V26.3803H14.7618V24.1877C14.7618 23.9519 14.7394 23.7837 14.6969 23.6795C14.6532 23.5741 14.5729 23.4923 14.4573 23.4295C14.3416 23.3632 14.2059 23.3336 14.0512 23.3336C13.7727 23.3336 13.539 23.4141 13.3525 23.5741C13.1672 23.7387 13.0739 23.9993 13.0739 24.3559V26.3791H12.3987V24.119C12.3987 23.856 12.3444 23.6617 12.2335 23.5302C12.1225 23.3999 11.9431 23.3336 11.6916 23.3336C11.5028 23.3336 11.3257 23.375 11.1664 23.4651C11.0047 23.5504 10.8878 23.6795 10.8146 23.8441C10.7415 24.0147 10.7048 24.2576 10.7048 24.5727V26.3779H10.0273V26.3815Z" fill="white"/>
<path d="M16.5547 22.2596V21.582H17.2299V22.2596H16.5547ZM16.5547 26.3819V22.9028H17.2299V26.3819H16.5547Z" fill="white"/>
<path d="M18.2734 26.3823V22.9032H18.8837V23.3995C19.1776 23.0157 19.599 22.8262 20.1526 22.8262C20.3934 22.8262 20.6141 22.8617 20.8159 22.9363C21.0166 23.0133 21.1689 23.1117 21.268 23.2325C21.3672 23.3569 21.4392 23.5014 21.4793 23.6696C21.5041 23.7798 21.5159 23.9705 21.5159 24.2429V26.3823H20.8419V24.2678C20.8419 24.0238 20.8147 23.8461 20.7616 23.7276C20.7097 23.6068 20.6165 23.512 20.4831 23.4422C20.3485 23.3699 20.1927 23.3367 20.0109 23.3367C19.7241 23.3367 19.475 23.4149 19.2673 23.5748C19.0572 23.7324 18.9522 24.0356 18.9522 24.4822V26.3823H18.2734Z" fill="white"/>
<path d="M22.6289 22.2596V21.582H23.3053V22.2596H22.6289ZM22.6289 26.3819V22.9028H23.3053V26.3819H22.6289Z" fill="white"/>
<path d="M24 25.3414L24.6669 25.249C24.7047 25.4836 24.8085 25.6625 24.982 25.7868C25.1532 25.91 25.3928 25.974 25.702 25.974C26.0113 25.974 26.2415 25.9183 26.3914 25.8058C26.5413 25.6968 26.6169 25.5653 26.6169 25.4184C26.6169 25.2881 26.5508 25.1803 26.4174 25.1057C26.3241 25.0512 26.0951 24.9872 25.7268 24.9067C25.2311 24.7965 24.8876 24.7018 24.6952 24.6212C24.5052 24.5419 24.36 24.4317 24.2596 24.2931C24.1605 24.1498 24.1109 23.9946 24.1109 23.8252C24.1109 23.6712 24.1523 23.5267 24.2337 23.3952C24.3152 23.2625 24.4261 23.1512 24.5666 23.0659C24.6716 22.9972 24.8156 22.9427 24.995 22.8929C25.1768 22.8455 25.3727 22.8242 25.5793 22.8242C25.8933 22.8242 26.1683 22.8621 26.4068 22.9415C26.6405 23.0197 26.8152 23.1275 26.9273 23.2625C27.0418 23.3952 27.1173 23.5741 27.1586 23.8003L26.5 23.8761C26.4693 23.6984 26.3808 23.5587 26.2368 23.4568C26.0928 23.3585 25.8909 23.3087 25.6265 23.3087C25.3161 23.3087 25.0942 23.3525 24.962 23.4414C24.8298 23.5302 24.7625 23.6345 24.7625 23.7577C24.7625 23.8323 24.7896 23.8986 24.8463 23.9614C24.9006 24.0266 24.9868 24.0775 25.1036 24.1201C25.1733 24.1403 25.3727 24.1912 25.702 24.2718C26.1789 24.3807 26.5142 24.4743 26.703 24.5442C26.8931 24.6165 27.0406 24.716 27.1492 24.8522C27.2566 24.9873 27.3097 25.1555 27.3097 25.3556C27.3097 25.5547 27.2448 25.7383 27.1138 25.9148C26.9816 26.0877 26.7927 26.2204 26.5437 26.3152C26.297 26.4099 26.0161 26.4573 25.7033 26.4573C25.1863 26.4573 24.7908 26.3625 24.5181 26.1754C24.249 25.9894 24.0744 25.711 24 25.3414Z" fill="white"/>
<path d="M29.5907 25.8544L29.6886 26.3745C29.4962 26.41 29.3251 26.4278 29.1764 26.4278C28.9297 26.4278 28.7408 26.3946 28.6038 26.3271C28.4705 26.2572 28.3761 26.1695 28.3218 26.0582C28.2663 25.9492 28.2368 25.7182 28.2368 25.364V23.3621H27.7422V22.9048H28.2368V21.9062H28.9096V22.9048H29.5907V23.3621H28.9096V25.3972C28.9096 25.5642 28.9214 25.672 28.9462 25.7206C28.9698 25.768 29.0076 25.807 29.0607 25.8343C29.1161 25.8627 29.1929 25.8781 29.2932 25.8781C29.3664 25.8781 29.4668 25.8686 29.5907 25.8544Z" fill="white"/>
<path d="M33.1862 25.2593L33.8861 25.3351C33.7752 25.6928 33.571 25.9688 33.2747 26.1643C32.9761 26.3597 32.5948 26.4581 32.1309 26.4581C31.5478 26.4581 31.0851 26.3005 30.7428 25.989C30.4016 25.6739 30.2305 25.2344 30.2305 24.6706C30.2305 24.0854 30.4029 23.6305 30.7475 23.3107C31.0934 22.9873 31.5407 22.8262 32.0919 22.8262C32.6267 22.8262 33.061 22.9837 33.3986 23.2976C33.7374 23.6163 33.9062 24.0617 33.9062 24.635C33.9062 24.6705 33.9038 24.7215 33.9038 24.7926H30.9293C30.9529 25.1728 31.0756 25.4666 31.2987 25.6691C31.523 25.8741 31.8015 25.9748 32.1332 25.9748C32.3823 25.9748 32.5936 25.9191 32.7683 25.8054C32.9454 25.6893 33.0846 25.5092 33.1862 25.2593ZM30.967 24.3081H33.1956C33.1637 24.0178 33.0799 23.794 32.9395 23.6494C32.7235 23.4244 32.4437 23.3107 32.1002 23.3107C31.7898 23.3107 31.5313 23.3995 31.3176 23.5807C31.1063 23.762 30.9883 24.0025 30.967 24.3081Z" fill="white"/>
<path d="M34.5391 26.3815V22.9024H35.1457V23.4307C35.3027 23.1831 35.4456 23.0197 35.5778 22.9415C35.7076 22.8633 35.8516 22.8242 36.0098 22.8242C36.2376 22.8242 36.4713 22.887 36.7062 23.0114L36.4725 23.561C36.3073 23.4757 36.1431 23.4331 35.9767 23.4331C35.8303 23.4331 35.697 23.4686 35.5778 23.5504C35.4609 23.6262 35.3771 23.734 35.3275 23.8714C35.2532 24.0822 35.2166 24.3109 35.2166 24.5608V26.3815H34.5391Z" fill="white"/>
<path d="M39.8369 25.2593L40.5357 25.3351C40.4248 25.6928 40.2206 25.9688 39.9243 26.1643C39.6268 26.3597 39.2456 26.4581 38.7817 26.4581C38.1974 26.4581 37.7335 26.3005 37.3912 25.989C37.0524 25.6739 36.8789 25.2344 36.8789 24.6706C36.8789 24.0854 37.0524 23.6305 37.3983 23.3107C37.7429 22.9873 38.1915 22.8262 38.7427 22.8262C39.275 22.8262 39.7118 22.9837 40.0494 23.2976C40.3882 23.6163 40.557 24.0617 40.557 24.635C40.557 24.6705 40.5546 24.7215 40.5534 24.7926H37.5777C37.6025 25.1728 37.7264 25.4666 37.9472 25.6691C38.1726 25.8741 38.4488 25.9748 38.7828 25.9748C39.0295 25.9748 39.2432 25.9191 39.4179 25.8054C39.5949 25.6893 39.7342 25.5092 39.8369 25.2593ZM37.6155 24.3081H39.8452C39.8145 24.0178 39.7307 23.794 39.5891 23.6494C39.3742 23.4244 39.0945 23.3107 38.751 23.3107C38.4405 23.3107 38.1809 23.3995 37.9684 23.5807C37.7583 23.762 37.6403 24.0025 37.6155 24.3081Z" fill="white"/>
<path d="M43.9735 26.3831V25.9436C43.7209 26.2883 43.3491 26.4601 42.8581 26.4601C42.5394 26.4601 42.2478 26.3843 41.9799 26.2327C41.7143 26.0775 41.5078 25.8666 41.3626 25.5906C41.2139 25.3182 41.1406 25.0019 41.1406 24.6489C41.1406 24.3006 41.208 23.9867 41.3413 23.7012C41.4747 23.4193 41.673 23.2025 41.9397 23.0497C42.2041 22.9028 42.4992 22.827 42.8285 22.827C43.0693 22.827 43.283 22.872 43.4707 22.9573C43.6584 23.0473 43.8107 23.1622 43.9299 23.302V21.582H44.6015V26.3831H43.9735ZM41.8371 24.6477C41.8371 25.0907 41.9433 25.4224 42.1593 25.6463C42.3753 25.8666 42.6268 25.9756 42.9218 25.9756C43.2181 25.9756 43.4695 25.8678 43.6749 25.6569C43.8827 25.4485 43.9865 25.1263 43.9865 24.6939C43.9865 24.2189 43.8815 23.8682 43.669 23.6456C43.4601 23.4229 43.2016 23.3127 42.8923 23.3127C42.5925 23.3127 42.3399 23.4169 42.1392 23.6337C41.9374 23.8481 41.8371 24.1845 41.8371 24.6477Z" fill="white"/>
<path d="M48.7283 26.3831H48.1016V21.582H48.7767V23.2926C49.0612 22.9798 49.4271 22.8258 49.8697 22.8258C50.1153 22.8258 50.3478 22.8673 50.5685 22.9526C50.7857 23.0391 50.9675 23.1611 51.108 23.3151C51.2484 23.4726 51.3594 23.6598 51.4408 23.8813C51.5211 24.104 51.5612 24.3385 51.5612 24.5885C51.5612 25.1855 51.3924 25.6463 51.0525 25.9721C50.7161 26.2966 50.31 26.4589 49.8367 26.4589C49.3657 26.4589 48.9963 26.2871 48.7295 25.9448L48.7283 26.3831ZM48.7201 24.6145C48.7201 25.0339 48.7862 25.3348 48.916 25.5195C49.1297 25.8252 49.4176 25.9768 49.7788 25.9768C50.0739 25.9768 50.3301 25.8631 50.5461 25.6404C50.7609 25.4177 50.8671 25.0824 50.8671 24.6394C50.8671 24.1845 50.7644 23.8493 50.5567 23.6349C50.3513 23.4181 50.0999 23.3127 49.8072 23.3127C49.5133 23.3127 49.2571 23.4217 49.0423 23.6479C48.8275 23.8694 48.7201 24.1928 48.7201 24.6145Z" fill="white"/>
<path d="M52.3494 27.7204L52.2738 27.1672C52.4226 27.2027 52.55 27.2205 52.6622 27.2205C52.8121 27.2205 52.9325 27.1968 53.0234 27.1565C53.1131 27.1115 53.1887 27.0475 53.2441 26.9717C53.2866 26.9125 53.3574 26.7668 53.4518 26.531C53.4648 26.4991 53.4837 26.4517 53.5108 26.3901L52 22.9062H52.7271L53.5581 24.9188C53.6643 25.1759 53.7611 25.4412 53.8461 25.7243C53.924 25.4543 54.0149 25.1913 54.1235 24.9319L54.9781 22.9062H55.6521L54.1341 26.4398C53.9724 26.8236 53.8461 27.0878 53.7564 27.2299C53.636 27.423 53.4979 27.5652 53.3433 27.6576C53.1886 27.7464 53.001 27.7902 52.7861 27.7902C52.6551 27.7902 52.5099 27.7701 52.3494 27.7204Z" fill="white"/>
<path d="M58.7148 26.3838V21.7734H60.4453C60.7474 21.7734 60.98 21.7877 61.1417 21.8173C61.3648 21.8552 61.5549 21.9274 61.7071 22.0317C61.8594 22.1383 61.9809 22.2875 62.0742 22.4771C62.1674 22.6666 62.2147 23.048 62.2147 23.2755C62.2147 23.6676 62.0907 24.0016 61.8416 24.2705C61.5949 24.5418 61.1476 24.678 60.4984 24.678H59.3239V26.3838H58.7148ZM59.3228 24.1343H60.5067C60.8974 24.1343 61.1748 24.0597 61.3424 23.9151C61.5064 23.7706 61.5867 23.5621 61.5867 23.298C61.5867 23.1037 61.602 22.8751 61.4439 22.6311C61.3506 22.4877 61.2184 22.4024 61.0614 22.3586C60.9587 22.3314 60.7687 22.3172 60.4948 22.3172H59.3239L59.3228 24.1343Z" fill="white"/>
<path d="M66.5378 25.4618L67.2071 26.3823H66.4481L65.9629 25.7165C65.7847 25.4393 65.6395 25.2261 65.525 25.0804C65.4094 24.9323 65.3067 24.8305 65.217 24.7712C65.1273 24.7156 65.034 24.6729 64.9408 24.6492C64.8711 24.6338 64.759 24.6279 64.6032 24.6279H63.8997V26.3799H63.293V21.7695H65.3232C65.7328 21.7695 66.042 21.8098 66.2556 21.8927C66.4693 21.9768 66.6818 22.1758 66.8081 22.427C66.919 22.6485 66.9545 22.947 66.9545 23.2029C66.9545 23.5286 66.8801 23.82 66.67 24.0463C66.4587 24.269 66.1754 24.4194 65.7363 24.4822L66.5378 25.4618ZM63.9008 24.1185H65.2039C65.4813 24.1185 65.6985 24.0913 65.8555 24.0333C66.0101 23.9764 66.1306 23.8781 66.2132 23.7513C66.3065 23.6115 66.3572 23.4718 66.3631 23.2017C66.3701 22.8392 66.2545 22.6343 66.0975 22.4945C65.9393 22.3512 65.6903 22.2824 65.3503 22.2824H63.9008V24.1185Z" fill="white"/>
<path d="M68.1016 26.3838V21.7734H68.7082V26.3838H68.1016Z" fill="white"/>
<path d="M0.432246 17.4594C0.266994 17.4594 0.133573 17.3315 0.12649 17.1656C-0.0505653 12.4569 1.55713 8.08588 4.65915 4.85082C7.66084 1.72237 11.6894 0 15.999 0C22.0024 0 27.5938 3.4933 30.2449 8.90324C30.3193 9.05249 30.2567 9.23255 30.108 9.31073C29.9557 9.38536 29.7751 9.31902 29.7019 9.17095C27.1523 3.96949 21.7734 0.607686 15.999 0.607686C11.8535 0.607686 7.98071 2.26371 5.09588 5.27252C2.11072 8.38558 0.562048 12.6027 0.732022 17.1443C0.739104 17.3113 0.609269 17.4535 0.442837 17.4594C0.439295 17.4594 0.434607 17.4594 0.432246 17.4594Z" fill="white"/>
<path d="M3.459 13.0246C3.44129 13.0246 3.42239 13.0234 3.40115 13.0187C3.23707 12.9903 3.13084 12.8292 3.16153 12.6657C4.47528 5.58196 10.2544 0.632812 17.2115 0.632812C19.1461 0.632812 21.1139 0.918298 22.4784 1.39923C22.6342 1.45609 22.7191 1.62667 22.6625 1.78778C22.607 1.94651 22.4359 2.02824 22.2765 1.97138C20.9734 1.51414 19.0824 1.2405 17.2115 1.2405C10.5495 1.2405 5.01592 5.98471 3.75647 12.7735C3.72932 12.9251 3.60182 13.0246 3.459 13.0246Z" fill="white"/>
<path d="M8.28417 17.4611C8.26056 17.4611 8.23573 17.4587 8.21213 17.4528C8.04805 17.4113 7.94774 17.2466 7.99023 17.082C8.02564 16.9375 11.6942 2.57218 21.9824 1.24546C22.1441 1.22059 22.2999 1.34022 22.3223 1.50725C22.3436 1.67546 22.2256 1.8259 22.0579 1.8484C12.177 3.12656 8.61116 17.0903 8.57811 17.2289C8.54388 17.3698 8.41991 17.4611 8.28417 17.4611Z" fill="white"/>
<path d="M16.7679 17.2581C16.7242 17.2581 16.6805 17.2486 16.6392 17.2285C16.4881 17.1562 16.422 16.9762 16.494 16.8246C21.8836 5.36266 21.9438 1.67864 21.9438 1.6431C21.9438 1.47371 22.0796 1.33984 22.2472 1.33984C22.4148 1.33984 22.5517 1.47371 22.5517 1.6431C22.5517 1.79472 22.4868 5.50006 17.0441 17.0816C16.991 17.193 16.8824 17.2581 16.7679 17.2581Z" fill="white"/>
<path d="M25.481 15.1036C25.4503 15.1036 25.4173 15.0977 25.3866 15.0882C25.2284 15.0349 25.1422 14.8631 25.1941 14.702C25.2201 14.6227 27.8264 6.47755 22.6788 2.15505C22.5513 2.04844 22.5324 1.85535 22.6422 1.7286C22.7496 1.59711 22.9408 1.57935 23.0671 1.68951C28.5358 6.27854 25.7973 14.8098 25.769 14.8963C25.7253 15.0242 25.6084 15.1036 25.481 15.1036Z" fill="white"/>
<path d="M28.5597 7.01204C28.5196 7.01204 28.4782 7.00257 28.4393 6.98599L14.1272 0.718418C13.9738 0.649713 13.9042 0.470838 13.9703 0.316843C14.0364 0.162849 14.217 0.0941491 14.3716 0.159301L28.6789 6.42923C28.8335 6.49557 28.902 6.67681 28.8371 6.8308C28.7887 6.94452 28.6754 7.01204 28.5597 7.01204Z" fill="white"/>
<path d="M27.9556 12.568C27.9155 12.568 27.8765 12.5621 27.8364 12.5431L6.84699 3.52381C6.69354 3.45392 6.62389 3.27742 6.68763 3.12225C6.75491 2.96707 6.93198 2.89599 7.08661 2.96233L28.0748 11.9852C28.2283 12.0515 28.3014 12.228 28.2353 12.3832C28.1846 12.4993 28.0748 12.568 27.9556 12.568Z" fill="white"/>
<path d="M19.647 17.4609C19.6092 17.4609 19.5691 17.4526 19.5277 17.436L1.74543 9.82392C1.59198 9.75759 1.52233 9.57635 1.58607 9.42236C1.65217 9.26836 1.83045 9.19847 1.9839 9.26125L19.7661 16.878C19.9196 16.9444 19.9916 17.1221 19.9255 17.2761C19.8771 17.3921 19.7638 17.4609 19.647 17.4609Z" fill="white"/>
<path d="M15.3841 0.934178L15.1953 0.437844L17.4592 0.369141L17.5501 0.871394L15.3841 0.934178Z" fill="white"/>
<path d="M20.0236 51V45.4H20.6796L24.3836 50H24.0396V45.4H24.8396V51H24.1836L20.4796 46.4H20.8236V51H20.0236ZM28.2198 51.048C27.7931 51.048 27.4144 50.9547 27.0838 50.768C26.7531 50.5813 26.4918 50.3253 26.2998 50C26.1078 49.6693 26.0118 49.296 26.0118 48.88C26.0118 48.4587 26.1078 48.0853 26.2998 47.76C26.4918 47.4347 26.7531 47.1813 27.0838 47C27.4144 46.8133 27.7931 46.72 28.2198 46.72C28.6411 46.72 29.0171 46.8133 29.3478 47C29.6838 47.1813 29.9451 47.4347 30.1318 47.76C30.3238 48.08 30.4198 48.4533 30.4198 48.88C30.4198 49.3013 30.3238 49.6747 30.1318 50C29.9451 50.3253 29.6838 50.5813 29.3478 50.768C29.0171 50.9547 28.6411 51.048 28.2198 51.048ZM28.2198 50.376C28.4918 50.376 28.7344 50.3147 28.9478 50.192C29.1664 50.0693 29.3371 49.896 29.4598 49.672C29.5824 49.4427 29.6438 49.1787 29.6438 48.88C29.6438 48.576 29.5824 48.3147 29.4598 48.096C29.3371 47.872 29.1664 47.6987 28.9478 47.576C28.7344 47.4533 28.4918 47.392 28.2198 47.392C27.9478 47.392 27.7051 47.4533 27.4918 47.576C27.2784 47.6987 27.1078 47.872 26.9798 48.096C26.8518 48.3147 26.7878 48.576 26.7878 48.88C26.7878 49.1787 26.8518 49.4427 26.9798 49.672C27.1078 49.896 27.2784 50.0693 27.4918 50.192C27.7051 50.3147 27.9478 50.376 28.2198 50.376ZM33.7459 46.72C34.0926 46.72 34.3966 46.7867 34.6579 46.92C34.9246 47.0533 35.1326 47.256 35.2819 47.528C35.4312 47.8 35.5059 48.144 35.5059 48.56V51H34.7379V48.648C34.7379 48.2373 34.6366 47.928 34.4339 47.72C34.2366 47.512 33.9566 47.408 33.5939 47.408C33.3219 47.408 33.0846 47.4613 32.8819 47.568C32.6792 47.6747 32.5219 47.832 32.4099 48.04C32.3032 48.248 32.2499 48.5067 32.2499 48.816V51H31.4819V46.76H32.2179V47.904L32.0979 47.6C32.2366 47.3227 32.4499 47.1067 32.7379 46.952C33.0259 46.7973 33.3619 46.72 33.7459 46.72ZM38.6792 51.048C38.2686 51.048 37.9006 50.9573 37.5752 50.776C37.2552 50.5947 37.0019 50.3413 36.8152 50.016C36.6286 49.6907 36.5352 49.312 36.5352 48.88C36.5352 48.448 36.6286 48.072 36.8152 47.752C37.0019 47.4267 37.2552 47.1733 37.5752 46.992C37.9006 46.8107 38.2686 46.72 38.6792 46.72C39.0366 46.72 39.3592 46.8 39.6472 46.96C39.9352 47.12 40.1646 47.36 40.3352 47.68C40.5112 48 40.5992 48.4 40.5992 48.88C40.5992 49.36 40.5139 49.76 40.3432 50.08C40.1779 50.4 39.9512 50.6427 39.6632 50.808C39.3752 50.968 39.0472 51.048 38.6792 51.048ZM38.7432 50.376C39.0099 50.376 39.2499 50.3147 39.4632 50.192C39.6819 50.0693 39.8526 49.896 39.9752 49.672C40.1032 49.4427 40.1672 49.1787 40.1672 48.88C40.1672 48.576 40.1032 48.3147 39.9752 48.096C39.8526 47.872 39.6819 47.6987 39.4632 47.576C39.2499 47.4533 39.0099 47.392 38.7432 47.392C38.4712 47.392 38.2286 47.4533 38.0152 47.576C37.8019 47.6987 37.6312 47.872 37.5032 48.096C37.3752 48.3147 37.3112 48.576 37.3112 48.88C37.3112 49.1787 37.3752 49.4427 37.5032 49.672C37.6312 49.896 37.8019 50.0693 38.0152 50.192C38.2286 50.3147 38.4712 50.376 38.7432 50.376ZM40.1912 51V49.856L40.2392 48.872L40.1592 47.888V45.064H40.9272V51H40.1912ZM44.2683 51.048C43.815 51.048 43.415 50.9547 43.0683 50.768C42.727 50.5813 42.4603 50.3253 42.2683 50C42.0817 49.6747 41.9883 49.3013 41.9883 48.88C41.9883 48.4587 42.079 48.0853 42.2603 47.76C42.447 47.4347 42.7003 47.1813 43.0203 47C43.3457 46.8133 43.711 46.72 44.1163 46.72C44.527 46.72 44.8897 46.8107 45.2043 46.992C45.519 47.1733 45.7643 47.4293 45.9403 47.76C46.1217 48.0853 46.2123 48.4667 46.2123 48.904C46.2123 48.936 46.2097 48.9733 46.2043 49.016C46.2043 49.0587 46.2017 49.0987 46.1963 49.136H42.5883V48.584H45.7963L45.4843 48.776C45.4897 48.504 45.4337 48.2613 45.3163 48.048C45.199 47.8347 45.0363 47.6693 44.8283 47.552C44.6257 47.4293 44.3883 47.368 44.1163 47.368C43.8497 47.368 43.6123 47.4293 43.4043 47.552C43.1963 47.6693 43.0337 47.8373 42.9163 48.056C42.799 48.2693 42.7403 48.5147 42.7403 48.792V48.92C42.7403 49.2027 42.8043 49.456 42.9323 49.68C43.0657 49.8987 43.2497 50.0693 43.4843 50.192C43.719 50.3147 43.9883 50.376 44.2923 50.376C44.543 50.376 44.7697 50.3333 44.9723 50.248C45.1803 50.1627 45.3617 50.0347 45.5163 49.864L45.9403 50.36C45.7483 50.584 45.5083 50.7547 45.2203 50.872C44.9377 50.9893 44.6203 51.048 44.2683 51.048ZM48.4948 51.048C48.1428 51.048 47.8068 51 47.4868 50.904C47.1721 50.808 46.9241 50.6907 46.7428 50.552L47.0628 49.944C47.2441 50.0667 47.4681 50.1707 47.7348 50.256C48.0014 50.3413 48.2734 50.384 48.5508 50.384C48.9081 50.384 49.1641 50.3333 49.3188 50.232C49.4788 50.1307 49.5588 49.9893 49.5588 49.808C49.5588 49.6747 49.5108 49.5707 49.4148 49.496C49.3188 49.4213 49.1908 49.3653 49.0308 49.328C48.8761 49.2907 48.7028 49.2587 48.5108 49.232C48.3188 49.2 48.1268 49.1627 47.9348 49.12C47.7428 49.072 47.5668 49.008 47.4068 48.928C47.2468 48.8427 47.1188 48.728 47.0228 48.584C46.9268 48.4347 46.8788 48.2373 46.8788 47.992C46.8788 47.736 46.9508 47.512 47.0948 47.32C47.2388 47.128 47.4414 46.9813 47.7028 46.88C47.9694 46.7733 48.2841 46.72 48.6468 46.72C48.9241 46.72 49.2041 46.7547 49.4868 46.824C49.7748 46.888 50.0094 46.9813 50.1908 47.104L49.8628 47.712C49.6708 47.584 49.4708 47.496 49.2628 47.448C49.0548 47.4 48.8468 47.376 48.6388 47.376C48.3028 47.376 48.0521 47.432 47.8868 47.544C47.7214 47.6507 47.6388 47.7893 47.6388 47.96C47.6388 48.104 47.6868 48.216 47.7828 48.296C47.8841 48.3707 48.0121 48.4293 48.1668 48.472C48.3268 48.5147 48.5028 48.552 48.6948 48.584C48.8868 48.6107 49.0788 48.648 49.2708 48.696C49.4628 48.7387 49.6361 48.8 49.7908 48.88C49.9508 48.96 50.0788 49.072 50.1748 49.216C50.2761 49.36 50.3268 49.552 50.3268 49.792C50.3268 50.048 50.2521 50.2693 50.1028 50.456C49.9534 50.6427 49.7428 50.7893 49.4708 50.896C49.1988 50.9973 48.8734 51.048 48.4948 51.048ZM52.7426 51.048C52.3159 51.048 51.9853 50.9333 51.7506 50.704C51.5159 50.4747 51.3986 50.1467 51.3986 49.72V45.832H52.1666V49.688C52.1666 49.9173 52.2226 50.0933 52.3346 50.216C52.4519 50.3387 52.6173 50.4 52.8306 50.4C53.0706 50.4 53.2706 50.3333 53.4306 50.2L53.6706 50.752C53.5533 50.8533 53.4119 50.928 53.2466 50.976C53.0866 51.024 52.9186 51.048 52.7426 51.048ZM50.6786 47.392V46.76H53.3826V47.392H50.6786ZM54.5991 51V46.76H55.3351V47.912L55.2631 47.624C55.3804 47.3307 55.5778 47.1067 55.8551 46.952C56.1324 46.7973 56.4738 46.72 56.8791 46.72V47.464C56.8471 47.4587 56.8151 47.456 56.7831 47.456C56.7564 47.456 56.7298 47.456 56.7031 47.456C56.2924 47.456 55.9671 47.5787 55.7271 47.824C55.4871 48.0693 55.3671 48.424 55.3671 48.888V51H54.5991ZM59.6643 51.048C59.3017 51.048 58.9817 50.9813 58.7043 50.848C58.4323 50.7147 58.219 50.512 58.0643 50.24C57.915 49.9627 57.8403 49.616 57.8403 49.2V46.76H58.6083V49.112C58.6083 49.528 58.707 49.84 58.9043 50.048C59.107 50.256 59.3897 50.36 59.7523 50.36C60.019 50.36 60.251 50.3067 60.4483 50.2C60.6457 50.088 60.7977 49.928 60.9043 49.72C61.011 49.5067 61.0643 49.2507 61.0643 48.952V46.76H61.8323V51H61.1043V49.856L61.2243 50.16C61.0857 50.4427 60.8777 50.6613 60.6003 50.816C60.323 50.9707 60.011 51.048 59.6643 51.048ZM65.1424 51.048C64.7104 51.048 64.3237 50.9547 63.9824 50.768C63.6464 50.5813 63.3824 50.3253 63.1904 50C62.9984 49.6747 62.9024 49.3013 62.9024 48.88C62.9024 48.4587 62.9984 48.0853 63.1904 47.76C63.3824 47.4347 63.6464 47.1813 63.9824 47C64.3237 46.8133 64.7104 46.72 65.1424 46.72C65.5264 46.72 65.8677 46.7973 66.1664 46.952C66.4704 47.1013 66.7051 47.3253 66.8704 47.624L66.2864 48C66.1477 47.792 65.9771 47.64 65.7744 47.544C65.5771 47.4427 65.3637 47.392 65.1344 47.392C64.8571 47.392 64.6091 47.4533 64.3904 47.576C64.1717 47.6987 63.9984 47.872 63.8704 48.096C63.7424 48.3147 63.6784 48.576 63.6784 48.88C63.6784 49.184 63.7424 49.448 63.8704 49.672C63.9984 49.896 64.1717 50.0693 64.3904 50.192C64.6091 50.3147 64.8571 50.376 65.1344 50.376C65.3637 50.376 65.5771 50.328 65.7744 50.232C65.9771 50.1307 66.1477 49.976 66.2864 49.768L66.8704 50.136C66.7051 50.4293 66.4704 50.656 66.1664 50.816C65.8677 50.9707 65.5264 51.048 65.1424 51.048ZM69.3754 51.048C68.9487 51.048 68.6181 50.9333 68.3834 50.704C68.1487 50.4747 68.0314 50.1467 68.0314 49.72V45.832H68.7994V49.688C68.7994 49.9173 68.8554 50.0933 68.9674 50.216C69.0847 50.3387 69.2501 50.4 69.4634 50.4C69.7034 50.4 69.9034 50.3333 70.0634 50.2L70.3034 50.752C70.1861 50.8533 70.0447 50.928 69.8794 50.976C69.7194 51.024 69.5514 51.048 69.3754 51.048ZM67.3114 47.392V46.76H70.0154V47.392H67.3114ZM71.2319 51V46.76H71.9999V51H71.2319ZM71.6159 45.944C71.4666 45.944 71.3412 45.896 71.2399 45.8C71.1439 45.704 71.0959 45.5867 71.0959 45.448C71.0959 45.304 71.1439 45.184 71.2399 45.088C71.3412 44.992 71.4666 44.944 71.6159 44.944C71.7652 44.944 71.8879 44.992 71.9839 45.088C72.0852 45.1787 72.1359 45.2933 72.1359 45.432C72.1359 45.576 72.0879 45.6987 71.9919 45.8C71.8959 45.896 71.7706 45.944 71.6159 45.944ZM74.5783 51L72.7223 46.76H73.5223L75.1703 50.6H74.7863L76.4663 46.76H77.2183L75.3623 51H74.5783ZM79.7058 51.048C79.2525 51.048 78.8525 50.9547 78.5058 50.768C78.1645 50.5813 77.8978 50.3253 77.7058 50C77.5192 49.6747 77.4258 49.3013 77.4258 48.88C77.4258 48.4587 77.5165 48.0853 77.6978 47.76C77.8845 47.4347 78.1378 47.1813 78.4578 47C78.7832 46.8133 79.1485 46.72 79.5538 46.72C79.9645 46.72 80.3272 46.8107 80.6418 46.992C80.9565 47.1733 81.2018 47.4293 81.3778 47.76C81.5592 48.0853 81.6498 48.4667 81.6498 48.904C81.6498 48.936 81.6472 48.9733 81.6418 49.016C81.6418 49.0587 81.6392 49.0987 81.6338 49.136H78.0258V48.584H81.2338L80.9218 48.776C80.9272 48.504 80.8712 48.2613 80.7538 48.048C80.6365 47.8347 80.4738 47.6693 80.2658 47.552C80.0632 47.4293 79.8258 47.368 79.5538 47.368C79.2872 47.368 79.0498 47.4293 78.8418 47.552C78.6338 47.6693 78.4712 47.8373 78.3538 48.056C78.2365 48.2693 78.1778 48.5147 78.1778 48.792V48.92C78.1778 49.2027 78.2418 49.456 78.3698 49.68C78.5032 49.8987 78.6872 50.0693 78.9218 50.192C79.1565 50.3147 79.4258 50.376 79.7298 50.376C79.9805 50.376 80.2072 50.3333 80.4098 50.248C80.6178 50.1627 80.7992 50.0347 80.9538 49.864L81.3778 50.36C81.1858 50.584 80.9458 50.7547 80.6578 50.872C80.3752 50.9893 80.0578 51.048 79.7058 51.048ZM86.0887 51V46.096H84.1687V45.4H88.8007V46.096H86.8807V51H86.0887ZM91.0105 51.048C90.5572 51.048 90.1572 50.9547 89.8105 50.768C89.4692 50.5813 89.2025 50.3253 89.0105 50C88.8239 49.6747 88.7305 49.3013 88.7305 48.88C88.7305 48.4587 88.8212 48.0853 89.0025 47.76C89.1892 47.4347 89.4425 47.1813 89.7625 47C90.0879 46.8133 90.4532 46.72 90.8585 46.72C91.2692 46.72 91.6319 46.8107 91.9465 46.992C92.2612 47.1733 92.5065 47.4293 92.6825 47.76C92.8639 48.0853 92.9545 48.4667 92.9545 48.904C92.9545 48.936 92.9519 48.9733 92.9465 49.016C92.9465 49.0587 92.9439 49.0987 92.9385 49.136H89.3305V48.584H92.5385L92.2265 48.776C92.2319 48.504 92.1759 48.2613 92.0585 48.048C91.9412 47.8347 91.7785 47.6693 91.5705 47.552C91.3679 47.4293 91.1305 47.368 90.8585 47.368C90.5919 47.368 90.3545 47.4293 90.1465 47.552C89.9385 47.6693 89.7759 47.8373 89.6585 48.056C89.5412 48.2693 89.4825 48.5147 89.4825 48.792V48.92C89.4825 49.2027 89.5465 49.456 89.6745 49.68C89.8079 49.8987 89.9919 50.0693 90.2265 50.192C90.4612 50.3147 90.7305 50.376 91.0345 50.376C91.2852 50.376 91.5119 50.3333 91.7145 50.248C91.9225 50.1627 92.1039 50.0347 92.2585 49.864L92.6825 50.36C92.4905 50.584 92.2505 50.7547 91.9625 50.872C91.6799 50.9893 91.3625 51.048 91.0105 51.048ZM95.237 51.048C94.885 51.048 94.549 51 94.229 50.904C93.9143 50.808 93.6663 50.6907 93.485 50.552L93.805 49.944C93.9863 50.0667 94.2103 50.1707 94.477 50.256C94.7436 50.3413 95.0156 50.384 95.293 50.384C95.6503 50.384 95.9063 50.3333 96.061 50.232C96.221 50.1307 96.301 49.9893 96.301 49.808C96.301 49.6747 96.253 49.5707 96.157 49.496C96.061 49.4213 95.933 49.3653 95.773 49.328C95.6183 49.2907 95.445 49.2587 95.253 49.232C95.061 49.2 94.869 49.1627 94.677 49.12C94.485 49.072 94.309 49.008 94.149 48.928C93.989 48.8427 93.861 48.728 93.765 48.584C93.669 48.4347 93.621 48.2373 93.621 47.992C93.621 47.736 93.693 47.512 93.837 47.32C93.981 47.128 94.1836 46.9813 94.445 46.88C94.7116 46.7733 95.0263 46.72 95.389 46.72C95.6663 46.72 95.9463 46.7547 96.229 46.824C96.517 46.888 96.7516 46.9813 96.933 47.104L96.605 47.712C96.413 47.584 96.213 47.496 96.005 47.448C95.797 47.4 95.589 47.376 95.381 47.376C95.045 47.376 94.7943 47.432 94.629 47.544C94.4636 47.6507 94.381 47.7893 94.381 47.96C94.381 48.104 94.429 48.216 94.525 48.296C94.6263 48.3707 94.7543 48.4293 94.909 48.472C95.069 48.5147 95.245 48.552 95.437 48.584C95.629 48.6107 95.821 48.648 96.013 48.696C96.205 48.7387 96.3783 48.8 96.533 48.88C96.693 48.96 96.821 49.072 96.917 49.216C97.0183 49.36 97.069 49.552 97.069 49.792C97.069 50.048 96.9943 50.2693 96.845 50.456C96.6956 50.6427 96.485 50.7893 96.213 50.896C95.941 50.9973 95.6156 51.048 95.237 51.048ZM99.4848 51.048C99.0581 51.048 98.7274 50.9333 98.4928 50.704C98.2581 50.4747 98.1408 50.1467 98.1408 49.72V45.832H98.9088V49.688C98.9088 49.9173 98.9648 50.0933 99.0768 50.216C99.1941 50.3387 99.3594 50.4 99.5728 50.4C99.8128 50.4 100.013 50.3333 100.173 50.2L100.413 50.752C100.295 50.8533 100.154 50.928 99.9888 50.976C99.8288 51.024 99.6608 51.048 99.4848 51.048ZM97.4208 47.392V46.76H100.125V47.392H97.4208ZM101.341 51V46.76H102.109V51H101.341ZM101.725 45.944C101.576 45.944 101.451 45.896 101.349 45.8C101.253 45.704 101.205 45.5867 101.205 45.448C101.205 45.304 101.253 45.184 101.349 45.088C101.451 44.992 101.576 44.944 101.725 44.944C101.875 44.944 101.997 44.992 102.093 45.088C102.195 45.1787 102.245 45.2933 102.245 45.432C102.245 45.576 102.197 45.6987 102.101 45.8C102.005 45.896 101.88 45.944 101.725 45.944ZM105.84 46.72C106.186 46.72 106.49 46.7867 106.752 46.92C107.018 47.0533 107.226 47.256 107.376 47.528C107.525 47.8 107.6 48.144 107.6 48.56V51H106.832V48.648C106.832 48.2373 106.73 47.928 106.528 47.72C106.33 47.512 106.05 47.408 105.688 47.408C105.416 47.408 105.178 47.4613 104.976 47.568C104.773 47.6747 104.616 47.832 104.504 48.04C104.397 48.248 104.344 48.5067 104.344 48.816V51H103.576V46.76H104.312V47.904L104.192 47.6C104.33 47.3227 104.544 47.1067 104.832 46.952C105.12 46.7973 105.456 46.72 105.84 46.72ZM110.877 52.6C110.488 52.6 110.109 52.544 109.741 52.432C109.378 52.3253 109.082 52.1707 108.853 51.968L109.221 51.376C109.418 51.5467 109.661 51.68 109.949 51.776C110.237 51.8773 110.538 51.928 110.853 51.928C111.354 51.928 111.722 51.8107 111.957 51.576C112.192 51.3413 112.309 50.984 112.309 50.504V49.608L112.389 48.768L112.349 47.92V46.76H113.077V50.424C113.077 51.1707 112.89 51.72 112.517 52.072C112.144 52.424 111.597 52.6 110.877 52.6ZM110.781 50.824C110.37 50.824 110.002 50.7387 109.677 50.568C109.357 50.392 109.101 50.1493 108.909 49.84C108.722 49.5307 108.629 49.1733 108.629 48.768C108.629 48.3573 108.722 48 108.909 47.696C109.101 47.3867 109.357 47.1467 109.677 46.976C110.002 46.8053 110.37 46.72 110.781 46.72C111.144 46.72 111.474 46.7947 111.773 46.944C112.072 47.088 112.309 47.312 112.485 47.616C112.666 47.92 112.757 48.304 112.757 48.768C112.757 49.2267 112.666 49.608 112.485 49.912C112.309 50.216 112.072 50.4453 111.773 50.6C111.474 50.7493 111.144 50.824 110.781 50.824ZM110.869 50.152C111.152 50.152 111.402 50.0933 111.621 49.976C111.84 49.8587 112.01 49.696 112.133 49.488C112.261 49.28 112.325 49.04 112.325 48.768C112.325 48.496 112.261 48.256 112.133 48.048C112.01 47.84 111.84 47.68 111.621 47.568C111.402 47.4507 111.152 47.392 110.869 47.392C110.586 47.392 110.333 47.4507 110.109 47.568C109.89 47.68 109.717 47.84 109.589 48.048C109.466 48.256 109.405 48.496 109.405 48.768C109.405 49.04 109.466 49.28 109.589 49.488C109.717 49.696 109.89 49.8587 110.109 49.976C110.333 50.0933 110.586 50.152 110.869 50.152Z" fill="white"/>
<path d="M23.1472 38L26.3172 31H27.3072L30.4872 38H29.4372L26.6072 31.56H27.0072L24.1772 38H23.1472ZM24.4972 36.25L24.7672 35.45H28.7072L28.9972 36.25H24.4972ZM36.5638 38.08C36.0305 38.08 35.5371 37.9933 35.0838 37.82C34.6371 37.64 34.2471 37.39 33.9138 37.07C33.5871 36.7433 33.3305 36.3633 33.1438 35.93C32.9571 35.4967 32.8638 35.02 32.8638 34.5C32.8638 33.98 32.9571 33.5033 33.1438 33.07C33.3305 32.6367 33.5905 32.26 33.9238 31.94C34.2571 31.6133 34.6471 31.3633 35.0938 31.19C35.5471 31.01 36.0405 30.92 36.5738 30.92C37.1138 30.92 37.6105 31.0133 38.0638 31.2C38.5238 31.38 38.9138 31.65 39.2338 32.01L38.5838 32.64C38.3171 32.36 38.0171 32.1533 37.6838 32.02C37.3505 31.88 36.9938 31.81 36.6138 31.81C36.2205 31.81 35.8538 31.8767 35.5138 32.01C35.1805 32.1433 34.8905 32.33 34.6438 32.57C34.3971 32.81 34.2038 33.0967 34.0638 33.43C33.9305 33.7567 33.8638 34.1133 33.8638 34.5C33.8638 34.8867 33.9305 35.2467 34.0638 35.58C34.2038 35.9067 34.3971 36.19 34.6438 36.43C34.8905 36.67 35.1805 36.8567 35.5138 36.99C35.8538 37.1233 36.2205 37.19 36.6138 37.19C36.9938 37.19 37.3505 37.1233 37.6838 36.99C38.0171 36.85 38.3171 36.6367 38.5838 36.35L39.2338 36.98C38.9138 37.34 38.5238 37.6133 38.0638 37.8C37.6105 37.9867 37.1105 38.08 36.5638 38.08ZM45.6439 38.08C45.1105 38.08 44.6172 37.9933 44.1639 37.82C43.7172 37.64 43.3272 37.39 42.9939 37.07C42.6672 36.7433 42.4105 36.3633 42.2239 35.93C42.0372 35.4967 41.9439 35.02 41.9439 34.5C41.9439 33.98 42.0372 33.5033 42.2239 33.07C42.4105 32.6367 42.6705 32.26 43.0039 31.94C43.3372 31.6133 43.7272 31.3633 44.1739 31.19C44.6272 31.01 45.1205 30.92 45.6539 30.92C46.1939 30.92 46.6905 31.0133 47.1439 31.2C47.6039 31.38 47.9939 31.65 48.3139 32.01L47.6639 32.64C47.3972 32.36 47.0972 32.1533 46.7639 32.02C46.4305 31.88 46.0739 31.81 45.6939 31.81C45.3005 31.81 44.9339 31.8767 44.5939 32.01C44.2605 32.1433 43.9705 32.33 43.7239 32.57C43.4772 32.81 43.2839 33.0967 43.1439 33.43C43.0105 33.7567 42.9439 34.1133 42.9439 34.5C42.9439 34.8867 43.0105 35.2467 43.1439 35.58C43.2839 35.9067 43.4772 36.19 43.7239 36.43C43.9705 36.67 44.2605 36.8567 44.5939 36.99C44.9339 37.1233 45.3005 37.19 45.6939 37.19C46.0739 37.19 46.4305 37.1233 46.7639 36.99C47.0972 36.85 47.3972 36.6367 47.6639 36.35L48.3139 36.98C47.9939 37.34 47.6039 37.6133 47.1439 37.8C46.6905 37.9867 46.1905 38.08 45.6439 38.08ZM51.7404 38V31H54.4704C55.0838 31 55.6071 31.0967 56.0404 31.29C56.4738 31.4833 56.8071 31.7633 57.0404 32.13C57.2738 32.4967 57.3904 32.9333 57.3904 33.44C57.3904 33.9467 57.2738 34.3833 57.0404 34.75C56.8071 35.11 56.4738 35.3867 56.0404 35.58C55.6071 35.7733 55.0838 35.87 54.4704 35.87H52.2904L52.7404 35.41V38H51.7404ZM56.4204 38L54.6404 35.46H55.7104L57.5104 38H56.4204ZM52.7404 35.51L52.2904 35.02H54.4404C55.0804 35.02 55.5638 34.8833 55.8904 34.61C56.2238 34.33 56.3904 33.94 56.3904 33.44C56.3904 32.94 56.2238 32.5533 55.8904 32.28C55.5638 32.0067 55.0804 31.87 54.4404 31.87H52.2904L52.7404 31.37V35.51ZM61.9161 34.02H65.5161V34.87H61.9161V34.02ZM62.0061 37.13H66.0861V38H61.0061V31H65.9461V31.87H62.0061V37.13ZM69.7053 38V31H72.6553C73.4019 31 74.0586 31.1467 74.6253 31.44C75.1986 31.7333 75.6419 32.1433 75.9553 32.67C76.2753 33.1967 76.4353 33.8067 76.4353 34.5C76.4353 35.1933 76.2753 35.8033 75.9553 36.33C75.6419 36.8567 75.1986 37.2667 74.6253 37.56C74.0586 37.8533 73.4019 38 72.6553 38H69.7053ZM70.7053 37.13H72.5953C73.1753 37.13 73.6753 37.02 74.0953 36.8C74.5219 36.58 74.8519 36.2733 75.0853 35.88C75.3186 35.48 75.4353 35.02 75.4353 34.5C75.4353 33.9733 75.3186 33.5133 75.0853 33.12C74.8519 32.7267 74.5219 32.42 74.0953 32.2C73.6753 31.98 73.1753 31.87 72.5953 31.87H70.7053V37.13ZM79.967 38V31H80.967V38H79.967ZM86.4527 38V31.87H84.0527V31H89.8427V31.87H87.4427V38H86.4527ZM93.8418 34.02H97.4418V34.87H93.8418V34.02ZM93.9318 37.13H98.0118V38H92.9318V31H97.8718V31.87H93.9318V37.13ZM101.631 38V31H104.581C105.328 31 105.984 31.1467 106.551 31.44C107.124 31.7333 107.568 32.1433 107.881 32.67C108.201 33.1967 108.361 33.8067 108.361 34.5C108.361 35.1933 108.201 35.8033 107.881 36.33C107.568 36.8567 107.124 37.2667 106.551 37.56C105.984 37.8533 105.328 38 104.581 38H101.631ZM102.631 37.13H104.521C105.101 37.13 105.601 37.02 106.021 36.8C106.448 36.58 106.778 36.2733 107.011 35.88C107.244 35.48 107.361 35.02 107.361 34.5C107.361 33.9733 107.244 33.5133 107.011 33.12C106.778 32.7267 106.448 32.42 106.021 32.2C105.601 31.98 105.101 31.87 104.521 31.87H102.631V37.13Z" fill="white"/>
<path d="M23.1572 40.5H108.841V41H23.1572V40.5Z" fill="white"/>
</svg>
