<svg width="227" height="54" viewBox="0 0 227 54" fill="none" xmlns="http://www.w3.org/2000/svg">
<path fill-rule="evenodd" clip-rule="evenodd" d="M-0.00390625 15.679L27.0321 25.497C19.9891 25.624 13.6541 26.25 8.92409 27.197C3.41809 28.298 0.0140915 29.911 0.0140915 31.767C0.0140915 33.627 3.41809 35.243 8.92409 36.342C14.2461 37.405 21.5921 38.066 29.6961 38.066C37.7971 38.066 45.1411 37.405 50.4681 36.342C55.9731 35.242 59.3771 33.627 59.3771 31.767C59.3771 29.911 55.9731 28.298 50.4681 27.197C47.6451 26.632 45.0751 26.253 41.3011 25.953L53.4281 21.495L-0.00390625 15.679ZM28.0791 26.367L18.4911 34.341L39.3471 26.684C43.9321 26.975 47.0091 27.399 50.3131 28.06C55.4001 29.077 58.5461 30.395 58.5461 31.766C58.5461 33.142 55.4001 34.455 50.3131 35.471C45.0441 36.531 37.7551 37.176 29.6961 37.176C21.6331 37.176 14.3421 36.53 9.07509 35.471C3.98409 34.455 0.842094 33.142 0.842094 31.766C0.842094 30.395 3.98509 29.077 9.07509 28.06C13.9891 27.08 20.6631 26.447 28.0791 26.367Z" fill="#231F20"/>
<path fill-rule="evenodd" clip-rule="evenodd" d="M63.2578 5.13498H77.7998C82.2118 5.13498 85.5058 5.97797 87.6818 7.65697C89.8618 9.34497 90.9068 11.742 90.8248 14.856C90.8248 16.082 90.6078 17.256 90.1738 18.377C89.7358 19.5 89.0328 20.497 88.0648 21.362C87.0988 22.23 85.8188 22.908 84.2518 23.391C82.6758 23.872 80.6918 24.121 78.3048 24.121H73.2088V32.735H63.2598V5.13498H63.2578ZM73.2068 11.564V17.691H77.5058C80.0558 17.691 81.3428 16.617 81.3428 14.476C81.3428 12.538 79.6108 11.564 76.1538 11.564H73.2068ZM94.2838 5.13498H104.269V21.744C104.269 23.454 104.625 24.708 105.328 25.517C106.025 26.32 107.203 26.707 108.866 26.684C110.576 26.684 111.791 26.279 112.493 25.462C113.193 24.641 113.547 23.406 113.547 21.744V5.13498H123.535V20.829C123.535 25.291 122.308 28.52 119.847 30.517C117.389 32.498 113.76 33.495 108.949 33.495C104.118 33.495 100.461 32.516 97.9918 30.549C95.5188 28.585 94.2848 25.344 94.2848 20.829V5.13498H94.2838ZM129.102 5.13498H142.206C145.496 5.13498 148.34 5.58198 150.744 6.47298C153.146 7.36798 155.018 8.78598 156.35 10.722C157.686 12.66 158.353 15.185 158.353 18.303C158.353 23.428 156.935 27.122 154.112 29.365C151.291 31.609 147.287 32.737 142.127 32.737H129.102V5.13498ZM139.093 11.564V26.302H141.322C146.106 26.302 148.449 23.737 148.363 18.609C148.363 15.983 147.836 14.153 146.784 13.116C145.73 12.086 143.742 11.565 140.819 11.565L139.093 11.564ZM170.534 5.13498H180.65L191.523 32.735H181.627L180.395 29.06H170.534L169.353 32.735H159.662L170.534 5.13498ZM172.389 23.315H178.668L175.466 13.439L172.389 23.315ZM195.029 5.13498H205.018V14.052L213.826 5.13498H225.421L214.377 15.549L226.642 32.736H214.708L207.376 21.745L205.019 23.962V32.736H195.03V5.13498H195.029Z" fill="#0076BC"/>
<path d="M101.975 36.769H110.476C111.749 36.769 112.808 36.95 113.653 37.31C114.496 37.671 115.118 38.135 115.514 38.701C115.908 39.267 116.109 39.869 116.109 40.504C116.109 41.795 115.329 42.922 113.647 43.393C114.298 43.21 115.891 44.356 115.891 48.267H112.945C112.945 44.544 111.077 44.335 109.86 44.335H104.672V48.267H101.976L101.975 36.769ZM110.742 42.044C111.665 42.044 112.312 41.908 112.68 41.641C113.054 41.37 113.24 40.991 113.24 40.504C113.24 40.038 113.055 39.68 112.693 39.43C112.328 39.183 111.676 39.055 110.743 39.055H104.673V42.043H110.742V42.044Z" fill="#676869"/>
<path d="M123.882 47.699C122.693 47.207 121.768 46.507 121.108 45.601C120.45 44.695 120.121 43.656 120.121 42.482C120.121 41.311 120.456 40.277 121.13 39.391C121.803 38.502 122.729 37.814 123.909 37.326C125.089 36.839 126.43 36.595 127.93 36.595C129.431 36.595 130.778 36.839 131.973 37.326C133.164 37.814 134.095 38.502 134.767 39.391C135.441 40.277 135.778 41.311 135.778 42.482C135.778 43.655 135.443 44.694 134.779 45.601C134.111 46.507 133.186 47.206 132 47.699C130.814 48.195 129.458 48.44 127.931 48.44C126.419 48.44 125.069 48.195 123.882 47.699ZM124.445 45.087C125.378 45.651 126.539 45.933 127.93 45.933C129.335 45.933 130.505 45.648 131.446 45.078C132.387 44.51 132.852 43.662 132.852 42.536C132.84 41.374 132.372 40.513 131.446 39.95C130.52 39.386 129.348 39.103 127.93 39.103C126.528 39.103 125.359 39.392 124.434 39.966C123.51 40.54 123.044 41.407 123.044 42.571C123.045 43.685 123.51 44.525 124.445 45.087Z" fill="#676869"/>
<path d="M139.801 44.074H142.629C142.629 45.695 145.611 45.934 146.891 45.934C148.194 45.934 149.539 45.845 150.096 45.671C150.656 45.496 151.23 45.224 151.23 44.852C151.23 44.121 149.936 44.08 149.335 43.999C148.734 43.916 147.874 43.865 146.757 43.842C145.568 43.806 144.491 43.713 143.534 43.554C142.575 43.396 141.736 43.068 141.022 42.561C140.311 42.055 139.95 41.321 139.95 40.357C139.95 39.15 140.563 38.22 141.785 37.57C143.009 36.921 144.681 36.595 146.816 36.595C152.678 36.595 153.754 39.436 153.754 40.712H150.935C150.935 40.236 150.853 40.057 150.689 39.766C150.527 39.477 150.137 39.245 149.525 39.07C148.911 38.896 147.964 38.809 146.684 38.809C144.215 38.809 142.816 39.228 142.816 40.063C142.816 40.971 143.931 41.108 144.483 41.184C145.037 41.26 145.82 41.31 146.837 41.332C148.127 41.368 149.276 41.463 150.283 41.62C151.294 41.776 152.163 42.111 152.889 42.621C153.615 43.13 153.981 43.875 153.981 44.85C153.981 46.034 153.374 46.931 152.166 47.533C150.957 48.137 149.265 48.438 147.097 48.438C144.302 48.44 139.801 48.022 139.801 44.074Z" fill="#676869"/>
<path d="M158.793 36.769H167.855C168.855 36.769 169.686 36.955 170.35 37.322C171.013 37.689 171.498 38.164 171.811 38.742C172.125 39.321 172.28 39.934 172.28 40.583C172.28 41.232 172.126 41.855 171.819 42.45C171.513 43.047 171.029 43.536 170.365 43.919C169.702 44.304 168.865 44.497 167.855 44.497H161.38V48.267H158.793V36.769ZM167.462 41.984C168.161 41.984 168.655 41.86 168.935 41.614C169.216 41.366 169.357 41.019 169.357 40.571C169.357 40.144 169.219 39.814 168.943 39.586C168.667 39.36 168.174 39.244 167.463 39.244H161.453V41.985H167.462V41.984Z" fill="#676869"/>
<path d="M213.629 36.769H226.764V39.277H216.438V40.995H225.879V43.322H216.438V45.757H226.746V48.267H213.629V36.769Z" fill="#676869"/>
<path d="M83.4922 36.769H96.6282V39.277H86.3002V40.995H95.7422V43.322H86.3002V45.757H96.6092V48.267H83.4932L83.4922 36.769Z" fill="#676869"/>
<path d="M205.949 43.604C205.819 44.303 205.413 44.865 204.703 45.278C203.839 45.778 202.715 46.03 201.334 46.03C199.982 46.03 198.822 45.757 197.857 45.213C196.889 44.67 196.409 43.79 196.409 42.573C196.409 41.281 196.871 40.365 197.796 39.823C198.722 39.278 199.9 39.007 201.334 39.007C202.742 39.007 203.873 39.255 204.726 39.75C205.404 40.144 205.801 40.695 205.943 41.395H208.798C208.7 40.438 208.372 39.603 207.777 38.909C207.068 38.079 206.102 37.459 204.886 37.045C203.664 36.634 202.865 36.43 201.34 36.43C199.803 36.43 198.618 36.661 197.392 37.128C196.168 37.595 195.206 38.28 194.511 39.188C193.81 40.097 193.463 41.194 193.463 42.484C193.463 43.773 193.827 44.881 194.545 45.807C195.271 46.732 196.244 47.432 197.47 47.902C198.694 48.376 199.854 48.61 201.34 48.61C202.873 48.61 203.684 48.407 204.896 48.003C206.108 47.596 207.068 46.982 207.777 46.156C208.388 45.448 208.72 44.592 208.804 43.607H205.949V43.604Z" fill="#676869"/>
<path d="M187.502 48.267H190.664L183.904 36.769H180.884L173.877 48.267H177.197L178.451 46.33H186.38L187.502 48.267ZM182.384 39.491L184.955 43.947H179.719L182.384 39.491Z" fill="#676869"/>
<path d="M76 48.267H79.162L72.4 36.769H69.382L62.375 48.267H65.694L66.949 46.33H74.877L76 48.267ZM70.882 39.491L73.453 43.947H68.217L70.882 39.491Z" fill="#676869"/>
<path fill-rule="evenodd" clip-rule="evenodd" d="M-0.00390625 15.679L27.0321 25.497C19.9891 25.624 13.6541 26.25 8.92409 27.197C3.41809 28.298 0.0140915 29.911 0.0140915 31.767C0.0140915 33.627 3.41809 35.243 8.92409 36.342C14.2461 37.405 21.5921 38.066 29.6961 38.066C37.7971 38.066 45.1411 37.405 50.4681 36.342C55.9731 35.242 59.3771 33.627 59.3771 31.767C59.3771 29.911 55.9731 28.298 50.4681 27.197C47.6451 26.632 45.0751 26.253 41.3011 25.953L53.4281 21.495L-0.00390625 15.679ZM28.0791 26.367L18.4911 34.341L39.3471 26.684C43.9321 26.975 47.0091 27.399 50.3131 28.06C55.4001 29.077 58.5461 30.395 58.5461 31.766C58.5461 33.142 55.4001 34.455 50.3131 35.471C45.0441 36.531 37.7551 37.176 29.6961 37.176C21.6331 37.176 14.3421 36.53 9.07509 35.471C3.98409 34.455 0.842094 33.142 0.842094 31.766C0.842094 30.395 3.98509 29.077 9.07509 28.06C13.9891 27.08 20.6631 26.447 28.0791 26.367Z" fill="#0076BC"/>
<path d="M9.62305 17.917L10.062 18.076C10.078 18.041 10.093 18.006 10.109 17.97L9.62305 17.917Z" fill="#231F20"/>
<path d="M6.28153 19.22C5.64653 21.084 5.39453 22.374 5.39453 22.374L6.59554 22.895C6.75554 22.964 6.90953 23.043 7.05953 23.131C7.14653 23.182 7.22753 23.24 7.30953 23.297C7.35753 23.33 7.40754 23.36 7.45554 23.396C7.71254 23.591 7.94653 23.813 8.15553 24.058C8.66953 24.725 8.93254 25.373 9.06654 25.972C10.0225 25.786 11.0415 25.618 12.1025 25.46C12.0985 25.436 12.0935 25.406 12.0885 25.384C12.0835 25.356 12.0785 25.32 12.0725 25.292L12.0745 25.293C12.0725 25.282 12.0685 25.272 12.0665 25.263C11.9925 24.915 11.9115 24.648 11.8495 24.473C11.7725 24.22 11.6825 24 11.5775 23.822C11.4855 23.619 11.3875 23.423 11.2795 23.231C11.2675 23.212 11.2565 23.193 11.2465 23.173C11.0065 22.758 10.7285 22.37 10.4165 22.012L9.51453 21.131C9.35053 20.999 9.18254 20.872 9.00854 20.753C8.99954 20.748 8.99254 20.74 8.98354 20.734C8.98454 20.732 8.98653 20.729 8.98653 20.727C9.00453 20.666 9.03054 20.605 9.05154 20.543L9.04653 20.542C9.07753 20.447 9.10953 20.353 9.14153 20.259L6.28153 19.22Z" fill="#E82429"/>
<path d="M9.47943 34.342C9.35143 34.029 9.23343 33.731 9.14443 33.489C9.10943 33.393 9.07943 33.297 9.04643 33.2L9.05144 33.199C9.03044 33.137 9.00343 33.077 8.98643 33.017C8.98643 33.014 8.98544 33.011 8.98344 33.008C9.13244 32.908 9.27843 32.801 9.41943 32.69C9.46843 32.651 9.51544 32.608 9.56344 32.568C9.65244 32.495 9.74143 32.422 9.82643 32.343C9.88443 32.29 9.93944 32.234 9.99644 32.178C10.0674 32.109 10.1394 32.04 10.2064 31.968C10.2654 31.906 10.3204 31.842 10.3774 31.778C10.4394 31.709 10.5004 31.638 10.5594 31.567C10.6154 31.498 10.6694 31.428 10.7234 31.358C10.7784 31.286 10.8294 31.213 10.8824 31.139C10.9344 31.065 10.9864 30.991 11.0344 30.914C11.0834 30.839 11.1304 30.763 11.1754 30.686C11.2224 30.608 11.2694 30.529 11.3144 30.449C11.3574 30.371 11.3964 30.29 11.4384 30.212C11.4794 30.129 11.5214 30.047 11.5594 29.963C11.5664 29.949 11.5734 29.936 11.5804 29.922C11.7044 29.712 11.8094 29.455 11.8944 29.144C11.9254 29.044 11.9614 28.888 11.9974 28.753C11.0614 28.898 10.1554 29.052 9.30843 29.221C8.96643 29.29 8.63844 29.358 8.32744 29.427C8.26744 29.513 8.22543 29.599 8.15843 29.687C7.95043 29.931 7.71643 30.152 7.46243 30.345C7.45143 30.353 7.44143 30.361 7.43243 30.367C7.33143 30.442 7.22644 30.51 7.11944 30.575C7.07944 30.599 7.04044 30.626 6.99844 30.649C6.91644 30.695 6.83144 30.735 6.74644 30.775C6.69744 30.799 6.64943 30.826 6.59943 30.848L5.39844 31.369C5.39844 31.371 5.54944 32.206 5.94344 33.514C6.84744 33.77 7.94643 34.039 9.30943 34.312C9.35943 34.323 9.42443 34.332 9.47943 34.342Z" fill="#E82429"/>
<path d="M45.8859 42.403C45.8739 42.428 45.8589 42.45 45.8469 42.475C45.5469 43.154 45.3479 43.889 45.2679 44.661C45.2419 44.918 45.2279 45.178 45.2279 45.443C45.2279 45.607 45.2329 45.77 45.2439 45.931C45.2769 46.416 45.3569 46.889 45.4759 47.346C44.5819 47.821 43.6529 48.237 42.6949 48.596C41.8319 48.923 40.9449 49.204 40.0339 49.432C38.9209 46.785 36.3179 44.933 33.2859 44.931C33.2649 44.931 33.2439 44.932 33.2239 44.934C33.2029 44.933 33.1829 44.931 33.1619 44.931C30.1309 44.934 27.5279 46.785 26.4129 49.432C25.5019 49.204 24.6159 48.922 23.7519 48.596C22.7949 48.236 21.8649 47.82 20.9719 47.346C21.0909 46.889 21.1709 46.416 21.2029 45.931C21.2139 45.769 21.2209 45.606 21.2209 45.443C21.2209 45.178 21.2069 44.918 21.1789 44.661C21.0989 43.89 20.9019 43.155 20.5999 42.475C19.4639 39.88 16.7659 38.064 13.7659 38.064C12.9509 38.063 12.1679 38.203 11.4369 38.448C11.4129 38.409 11.3909 38.368 11.3669 38.328C11.2929 38.199 11.2189 38.066 11.1479 37.936L11.1429 37.937C11.1409 37.934 11.1399 37.93 11.1379 37.927C10.2989 37.791 9.46594 37.656 8.69194 37.5C8.21094 37.404 7.78294 37.297 7.33594 37.195C7.44194 37.425 7.53694 37.649 7.65194 37.886H7.67494C7.73894 38.018 7.80594 38.149 7.87194 38.28L7.86094 38.281C7.90294 38.36 7.94794 38.435 7.98994 38.513C8.14894 38.815 8.31594 39.114 8.48494 39.409C8.57794 39.569 8.66694 39.734 8.76194 39.892C9.01594 40.315 9.27994 40.733 9.55594 41.14C9.57694 41.171 9.59394 41.205 9.61594 41.234L10.4049 42.4L11.0849 42.006L11.6239 41.697C11.8679 41.552 12.1289 41.442 12.3969 41.349C12.8269 41.203 13.2809 41.115 13.7649 41.115C16.1399 41.123 18.0619 43.05 18.0659 45.44C18.0659 45.994 17.9529 46.518 17.7619 47.011C17.7169 47.125 17.6699 47.242 17.6159 47.353L17.1059 48.378L16.9859 48.619L17.3829 48.856L18.1989 49.346C18.4799 49.515 18.7669 49.676 19.0559 49.836C21.5469 51.211 24.2779 52.208 27.1669 52.747L28.6429 53.021L28.6619 53.023L28.6659 53.002L28.7789 53.023L29.0549 51.521C29.2769 50.31 30.0019 49.277 31.0049 48.644C31.0309 48.629 31.0569 48.61 31.0829 48.593C31.1329 48.564 31.1849 48.538 31.2359 48.51C31.2939 48.479 31.3479 48.447 31.4059 48.417C31.4339 48.403 31.4659 48.393 31.4929 48.379C31.5759 48.342 31.6599 48.302 31.7469 48.27C31.7589 48.266 31.7699 48.262 31.7829 48.257C31.8869 48.219 31.9909 48.182 32.0979 48.151C32.0999 48.151 32.1029 48.151 32.1029 48.151C32.2209 48.117 32.3409 48.088 32.4629 48.065C32.4659 48.063 32.4699 48.063 32.4729 48.062C32.5929 48.041 32.7149 48.022 32.8389 48.01C32.8589 48.007 32.8789 48.007 32.9009 48.005C33.0059 47.996 33.1139 47.988 33.2209 47.987C33.3289 47.988 33.4349 47.996 33.5409 48.005C33.5619 48.007 33.5819 48.007 33.6029 48.01C33.7259 48.022 33.8479 48.041 33.9679 48.062C33.9709 48.063 33.9749 48.063 33.9789 48.065C34.0999 48.088 34.2199 48.117 34.3389 48.151C34.3389 48.151 34.3409 48.151 34.3429 48.151C34.4489 48.182 34.5549 48.219 34.6589 48.257C34.6709 48.262 34.6829 48.265 34.6959 48.27C34.7819 48.302 34.8639 48.342 34.9479 48.379C34.9759 48.393 35.0079 48.403 35.0349 48.417C35.0939 48.447 35.1479 48.479 35.2049 48.51C35.2569 48.537 35.3089 48.563 35.3589 48.593C35.3859 48.61 35.4099 48.629 35.4359 48.644C36.4399 49.277 37.1659 50.311 37.3859 51.521L37.6639 53.023L37.7759 53.002L37.7809 53.023L37.7979 53.021L39.2749 52.747C42.1659 52.208 44.8939 51.211 47.3859 49.836C47.6749 49.676 47.9619 49.515 48.2439 49.346L49.0579 48.856L49.4549 48.619L49.3359 48.378L48.8239 47.353C48.7699 47.242 48.7239 47.124 48.6789 47.011C48.4879 46.518 48.3749 45.994 48.3749 45.44C48.3759 44.252 48.8539 43.18 49.6229 42.4H45.8859V42.403Z" fill="#E82429"/>
<path d="M11.2124 15.709C11.2774 15.586 11.3444 15.459 11.4074 15.345C11.4174 15.328 11.4274 15.311 11.4374 15.294C12.1684 15.54 12.9514 15.68 13.7664 15.678C16.7664 15.678 19.4644 13.863 20.6014 11.267C21.0004 10.361 21.2214 9.35698 21.2214 8.29798C21.2214 7.64298 21.1314 7.00499 20.9724 6.39599C21.8484 5.93099 22.7564 5.52099 23.6934 5.16399C24.5764 4.82899 25.4844 4.54198 26.4144 4.30798C26.4854 4.48098 26.5654 4.64899 26.6504 4.81399C27.8694 7.18699 30.3284 8.80798 33.1634 8.80998C33.1844 8.80998 33.2044 8.80798 33.2254 8.80698C33.2454 8.80798 33.2664 8.80998 33.2874 8.80998C36.1204 8.80798 38.5804 7.18699 39.7994 4.81399C39.8844 4.64799 39.9634 4.48098 40.0354 4.30798C40.9674 4.54198 41.8754 4.82899 42.7584 5.16399C43.6944 5.51999 44.6034 5.93098 45.4784 6.39498C45.3194 7.00298 45.2304 7.64198 45.2304 8.29698C45.2304 9.35598 45.4494 10.36 45.8494 11.266C45.8554 11.28 45.8654 11.292 45.8714 11.308H49.6024C49.1424 10.834 48.7894 10.254 48.5854 9.60799C48.4544 9.19399 48.3824 8.75398 48.3824 8.29798C48.3824 8.13098 48.3924 7.96599 48.4114 7.80399C48.4544 7.43899 48.5474 7.08898 48.6754 6.75398C48.7244 6.62898 48.7734 6.50599 48.8314 6.38699L49.3674 5.30898L49.4614 5.12099L49.0324 4.86398L48.2494 4.39498C47.9774 4.23198 47.6994 4.07598 47.4224 3.92298C44.9224 2.53798 42.1814 1.53399 39.2794 0.993988L37.7864 0.717987L37.7814 0.738983L37.6884 0.721985L37.6684 0.717987L37.6494 0.818985L37.3894 2.21999C37.1684 3.43099 36.4414 4.46798 35.4354 5.09898C35.4104 5.11398 35.3874 5.13199 35.3624 5.14699C35.3094 5.17899 35.2544 5.20599 35.2004 5.23499C35.1464 5.26399 35.0944 5.29498 35.0384 5.32198C35.0064 5.33898 34.9724 5.35098 34.9394 5.36598C34.8594 5.40298 34.7804 5.43899 34.6994 5.46999C34.6824 5.47699 34.6644 5.48098 34.6474 5.48798C34.5474 5.52498 34.4484 5.55898 34.3454 5.58898C34.3414 5.59098 34.3364 5.59099 34.3334 5.59199C34.2174 5.62599 34.1004 5.65399 33.9804 5.67699C33.9734 5.67699 33.9664 5.67799 33.9594 5.67999C33.8424 5.70098 33.7244 5.71999 33.6034 5.73199C33.5824 5.73399 33.5604 5.73398 33.5384 5.73598C33.4344 5.74599 33.3294 5.75298 33.2234 5.75498C33.1164 5.75298 33.0124 5.74599 32.9084 5.73598C32.8864 5.73498 32.8634 5.73499 32.8424 5.73199C32.7224 5.71999 32.6034 5.70098 32.4874 5.67999C32.4804 5.67799 32.4734 5.67699 32.4664 5.67699C32.3474 5.65399 32.2294 5.62599 32.1134 5.59199C32.1094 5.59199 32.1054 5.59098 32.1004 5.58898C31.9984 5.55998 31.8994 5.52498 31.7994 5.48798C31.7824 5.48098 31.7644 5.47699 31.7474 5.46999C31.6644 5.43899 31.5864 5.40298 31.5074 5.36598C31.4744 5.35098 31.4414 5.33898 31.4074 5.32198C31.3514 5.29498 31.2994 5.26399 31.2454 5.23499C31.1924 5.20499 31.1364 5.17799 31.0844 5.14699C31.0594 5.13199 31.0354 5.11398 31.0104 5.09898C30.0064 4.46698 29.2784 3.43099 29.0564 2.21999L28.7984 0.818985L28.7794 0.717987L28.7584 0.721985L28.6664 0.738983L28.6624 0.717987L27.1684 0.993988C24.2664 1.53499 21.5254 2.53798 19.0254 3.92298C18.7484 4.07598 18.4694 4.23198 18.1994 4.39498L17.4144 4.86398L16.9854 5.12099L17.0794 5.30898L17.6154 6.38699C17.6754 6.50599 17.7234 6.62898 17.7714 6.75398C17.8994 7.08898 17.9924 7.43899 18.0364 7.80399C18.0554 7.96699 18.0654 8.13098 18.0654 8.29798C18.0644 8.75498 17.9924 9.19399 17.8624 9.60799C17.3084 11.355 15.6854 12.617 13.7644 12.624C13.2824 12.624 12.8264 12.537 12.3994 12.39C12.1294 12.297 11.8694 12.186 11.6234 12.042L11.0864 11.733L10.4044 11.338C9.39039 12.638 8.56839 14.018 7.90039 15.348L11.2124 15.709Z" fill="#E82429"/>
</svg>
