<svg width="32" height="32" viewBox="0 0 32 32" fill="none" xmlns="http://www.w3.org/2000/svg">
<g clip-path="url(#clip0_93_9)">
<rect width="32" height="32" rx="16" fill="white"/>
<g clip-path="url(#clip1_93_9)">
<rect width="32" height="32" rx="16" fill="white"/>
<rect width="32" height="32" fill="#1078BA"/>
<path fill-rule="evenodd" clip-rule="evenodd" d="M26 1.86863L29.9598 5.82843L6.20101 29.5872L2.24121 25.6274L26 1.86863Z" fill="#EEEEEE"/>
<path fill-rule="evenodd" clip-rule="evenodd" d="M6 1.86863L2.0402 5.82843L25.799 29.5872L29.7588 25.6274L6 1.86863Z" fill="#EEEEEE"/>
<path d="M6 3L3.17157 5.82843L25.799 28.4558L28.6274 25.6274L6 3Z" fill="#DC1F26"/>
<path d="M26 3L28.8284 5.82843L6.20101 28.4558L3.37258 25.6274L26 3Z" fill="#DC1F26"/>
<path d="M12 0H20V32H12V0Z" fill="#EEEEEE"/>
<path d="M0 20L-3.49691e-07 12L32 12L32 20L0 20Z" fill="#EEEEEE"/>
<path d="M0 19L-2.62268e-07 13L32 13L32 19L0 19Z" fill="#DC1F26"/>
<path d="M13 0H19V32H13V0Z" fill="#DC1F26"/>
</g>
</g>
<rect x="0.5" y="0.5" width="31" height="31" rx="15.5" stroke="#DEDEDE"/>
<defs>
<clipPath id="clip0_93_9">
<rect width="32" height="32" rx="16" fill="white"/>
</clipPath>
<clipPath id="clip1_93_9">
<rect width="32" height="32" rx="16" fill="white"/>
</clipPath>
</defs>
</svg>
