<svg width="24" height="25" viewBox="0 0 24 25" fill="none" xmlns="http://www.w3.org/2000/svg">
<path d="M21.872 1.51855H2.13014C1.45393 1.51855 0.905762 2.06673 0.905762 2.74293V22.4848C0.905762 23.161 1.45393 23.7092 2.13014 23.7092H21.872C22.5482 23.7092 23.0964 23.161 23.0964 22.4848V2.74293C23.0964 2.06673 22.5482 1.51855 21.872 1.51855Z" fill="#3D5A98"/>
<path d="M16.215 23.7071V15.114H19.0987L19.53 11.7652H16.215V9.62771C16.215 8.65834 16.485 7.99646 17.8743 7.99646H19.6481V4.99646C18.7892 4.90711 17.926 4.86455 17.0625 4.86896C14.5087 4.86896 12.75 6.42521 12.75 9.29584V11.7652H9.86621V15.114H12.75V23.7071H16.215Z" fill="white"/>
</svg>
