<svg width="24" height="25" viewBox="0 0 24 25" fill="none" xmlns="http://www.w3.org/2000/svg">
<path d="M20.4491 21.0623H16.8931V15.4932C16.8931 14.1653 16.8694 12.4557 15.0436 12.4557C13.1915 12.4557 12.9081 13.9027 12.9081 15.3966V21.0619H9.35213V9.60976H12.7658V11.1748H12.8137C13.1553 10.5907 13.649 10.1102 14.2421 9.78438C14.8353 9.4586 15.5057 9.29979 16.1819 9.32485C19.7861 9.32485 20.4506 11.6956 20.4506 14.7798L20.4491 21.0623ZM5.33963 8.04441C4.19991 8.0446 3.27581 7.12079 3.27562 5.98107C3.27544 4.84135 4.19916 3.91726 5.33887 3.91707C6.47859 3.91679 7.40269 4.8406 7.40287 5.98032C7.40297 6.52764 7.18566 7.05258 6.79872 7.43967C6.41179 7.82676 5.88694 8.04429 5.33963 8.04441ZM7.11769 21.0624H3.55791V9.60976H7.11759L7.11769 21.0624ZM22.2219 0.61454H1.77103C0.804469 0.603665 0.0118125 1.37795 0 2.34451V22.8807C0.0114375 23.8478 0.804 24.6228 1.77094 24.6127H22.2219C23.1909 24.6247 23.9866 23.8496 24 22.8807V2.34291C23.9862 1.37448 23.1905 0.60029 22.2219 0.612946" fill="#0A66C2"/>
</svg>
