<svg width="500" height="250" viewBox="0 0 500 250" fill="none" xmlns="http://www.w3.org/2000/svg">
<g clip-path="url(#clip0_852_7308)">
<path fill-rule="evenodd" clip-rule="evenodd" d="M20.25 165.811C12.3125 165.811 6.94792 164.454 4.15625 161.74C1.40625 158.994 0 153.85 0 146.276V129.139L19.1875 125.478V150.284H56.5312V83.1895H75.5937V146.276C75.5937 153.85 74.1562 158.994 71.375 161.74C68.5625 164.454 63.1875 165.811 55.2812 165.811H20.25ZM233.156 165.811V83.1895H303.156C309.625 83.1895 314.281 84.4518 317.188 87.0081C320.083 89.5749 321.531 93.6565 321.531 99.253V109.289C321.531 113.234 320.312 116.389 317.906 118.756C315.5 121.123 312.031 122.607 307.5 123.175C312.188 123.806 315.812 125.51 318.375 128.256C320.937 131.033 322.219 134.631 322.219 139.049V149.653C322.219 155.112 320.219 159.183 316.25 161.834C312.25 164.506 306.187 165.842 298.062 165.842C298.062 165.842 233.156 165.842 233.156 165.811ZM295.187 96.6651H251.875V116.263H295.187C298.5 116.263 300.75 115.853 302.031 114.938C303.281 114.054 303.906 112.539 303.906 110.362V102.598C303.906 100.473 303.281 98.9584 302.031 98.0537C300.75 97.1069 298.5 96.6651 295.187 96.6651ZM295.187 129.897H251.875V150.978H295.187C298.812 150.978 301.281 150.442 302.563 149.337C303.813 148.232 304.469 146.276 304.469 143.53V137.25C304.469 134.494 303.833 132.579 302.563 131.506C301.281 130.402 298.844 129.897 295.187 129.897ZM358.844 83.1895H377.906V165.811H358.844V83.1895ZM419.594 165.842V83.1895H438.656V150.315H500V165.842H419.594ZM189.219 134.694L206.875 165.842H185.531L171.437 139.364L189.219 134.694ZM114.438 165.811H95.5L141.719 83.1895H160.031L181.5 121.092H161.688L150.219 99.2214L114.438 165.811Z" fill="#0D4D84"/>
<path d="M240.937 121.124L121.594 152.399L138.406 121.061L240.937 121.124Z" fill="#00875D"/>
</g>
<defs>
<clipPath id="clip0_852_7308">
<rect width="500" height="83" fill="white" transform="translate(0 83)"/>
</clipPath>
</defs>
</svg>
