<svg width="500" height="250" viewBox="0 0 500 250" fill="none" xmlns="http://www.w3.org/2000/svg">
<g clip-path="url(#clip0_895_7072)">
<path d="M265.116 108.683V122.264L295.874 122.29L294.004 131.103H265.116V150.542H251.062V99.8379H300.642L298.764 108.683H265.116Z" fill="#4F5569"/>
<path d="M396.644 99.8359L372.793 150.542H382.949L387.633 140.291H414.68L419.533 150.542H435.642C435.642 150.542 414.658 108.669 412.916 105.09C411.055 101.281 409.708 99.8359 406.12 99.8359H396.644ZM400.926 111.217L410.495 131.447H391.677L400.926 111.217Z" fill="#4F5569"/>
<path d="M205.116 99.8359L181.26 150.542H191.422L196.105 140.291H223.153L228 150.542H244.116C244.116 150.542 223.125 108.669 221.383 105.09C219.527 101.281 218.181 99.8359 214.588 99.8359H205.116ZM209.399 111.217L218.968 131.447H200.15L209.399 111.217Z" fill="#4F5569"/>
<path d="M151.783 152.159C169.898 152.159 178.272 145.519 178.272 135.868C178.272 127.426 170.683 123.134 154.023 118.58C144.105 115.87 137.924 115.294 137.924 111.95C137.924 108.735 143.718 107.021 152.614 107.461C163.778 108.015 170.925 112.705 170.925 112.705L175.318 105.683C175.318 105.683 165.299 98.2188 149.294 98.2188C131.868 98.2188 122.721 103.535 122.721 113.295C122.721 122.952 133.132 126.288 148.331 130.643C157.682 133.322 163.069 133.82 163.069 137.399C163.069 140.146 160.251 143.617 147.826 142.997C135.867 142.4 125.496 135.496 125.496 135.496L120.198 141.947C120.198 141.947 131.584 152.159 151.783 152.159Z" fill="#4F5569"/>
<path d="M489.621 99.8379V130.084C489.621 130.084 459.946 106.38 457.512 104.436C453.136 100.943 451.121 99.8379 446.216 99.8379H442.593V150.544H452.978V120.73C452.978 120.73 482.418 144.23 484.852 146.174C489.228 149.667 491.472 150.544 496.377 150.544H500V99.8379H489.621Z" fill="#4F5569"/>
<path d="M309.358 99.8359V150.542H323.412V133.381H323.575H337.832H338.815C338.815 133.381 344.537 140.942 346.811 143.925C348.873 146.63 352.309 150.542 357.96 150.542H367.458L352.543 131.794C359.121 129.877 364.419 125.683 364.419 116.611V116.606C364.413 100.999 348.759 99.836 337.832 99.836H323.575L309.358 99.8359ZM323.412 108.577L323.575 108.68H338.409C345.866 108.68 349.215 111.287 349.215 116.606V116.611C349.215 121.93 345.866 124.537 338.409 124.537H323.575L323.412 124.64V108.577Z" fill="#4F5569"/>
<path d="M0 147.037C8.42515 164.755 26.4783 177.001 47.3903 177.001C68.2996 177.001 86.3533 164.755 94.779 147.037H93.6396C83.2414 161.319 66.3982 170.603 47.3903 170.603C28.3808 170.603 11.5381 161.319 1.13938 147.037H0Z" fill="url(#paint0_radial_895_7072)"/>
<path d="M34.7138 84.6445C34.5276 84.6445 24.2954 84.6798 13.9466 92.4215C7.73219 97.0743 5.17646 101.847 4.29009 106.213C-0.0961808 127.814 42.5749 136.403 58.9253 141.732C67.8775 144.65 69.0969 148.558 69.0231 151.653C68.8494 158.884 58.6542 165.381 58.6097 165.381C66.9192 165.251 78.171 160.302 84.9449 152.678C87.4808 149.828 89.781 145.921 90.2793 143.125C92.7473 130.216 80.7367 123.608 66.5694 118.659C55.509 114.798 46.3795 112.129 38.6209 109.739C26.2969 105.945 24.2093 102.315 24.3043 98.3888C24.414 93.8137 29.238 88.0414 34.7169 84.6445H34.7138Z" fill="url(#paint1_linear_895_7072)"/>
<mask id="mask0_895_7072" style="mask-type:luminance" maskUnits="userSpaceOnUse" x="23" y="84" width="68" height="60">
<path d="M23.2012 84.6451H90.6035V143.125H23.2012V84.6451Z" fill="white"/>
</mask>
<g mask="url(#mask0_895_7072)">
<g opacity="0.699997">
<path d="M34.7182 84.6445C26.7446 89.5652 24.0567 94.2995 23.3538 97.8398C22.3963 102.646 25.8336 106.705 37.6441 110.402C45.3864 112.825 54.5258 115.453 65.5911 119.317C74.8678 122.559 82.8527 125.986 87.1136 131.642C91.0727 136.897 90.2805 143.125 90.2805 143.125C92.7485 130.216 80.7379 123.608 66.5706 118.659C55.5102 114.798 46.3807 112.129 38.6221 109.739C26.2981 105.944 24.2103 102.315 24.3047 98.3888C24.4149 93.8137 29.2393 88.0414 34.7182 84.6445Z" fill="url(#paint2_linear_895_7072)"/>
</g>
</g>
<mask id="mask1_895_7072" style="mask-type:luminance" maskUnits="userSpaceOnUse" x="3" y="106" width="69" height="60">
<path d="M3.97559 106.838H71.2731V165.381H3.97559V106.838Z" fill="white"/>
</mask>
<g mask="url(#mask1_895_7072)">
<g opacity="0.699997">
<path d="M58.6484 165.359C58.6369 165.366 58.6211 165.375 58.6113 165.381C58.6124 165.381 58.626 165.373 58.6484 165.359Z" fill="url(#paint3_linear_895_7072)"/>
<path d="M59.8416 140.287C55.0097 138.89 49.0792 137.128 42.0077 135.026C36.563 133.41 29.6311 130.943 23.1844 128.088C5.91508 120.446 3.73199 111.182 4.17544 106.838C0.730914 127.981 42.7345 136.455 58.9259 141.732C67.8781 144.651 69.0983 148.558 69.0239 151.652C68.8556 158.649 59.3091 164.956 58.648 165.359C60.018 164.577 69.9456 158.735 71.0713 152.613C72.1335 146.781 69.0923 142.942 59.8416 140.287Z" fill="url(#paint4_linear_895_7072)"/>
</g>
</g>
<path d="M47.3903 71.998C26.4783 71.998 8.42515 84.2443 0 101.961H1.13938C11.5381 87.6803 28.3808 78.3975 47.3903 78.3975C66.3982 78.3975 83.2414 87.6803 93.6396 101.961H94.779C86.3533 84.2443 68.2996 71.998 47.3903 71.998Z" fill="url(#paint5_linear_895_7072)"/>
</g>
<defs>
<radialGradient id="paint0_radial_895_7072" cx="0" cy="0" r="1" gradientUnits="userSpaceOnUse" gradientTransform="translate(47.3898 162.019) scale(52.9822 53.0259)">
<stop stop-color="#84CFEC"/>
<stop offset="0.724548" stop-color="#0056A5"/>
<stop offset="1" stop-color="#0056A5"/>
</radialGradient>
<linearGradient id="paint1_linear_895_7072" x1="19.2456" y1="109.45" x2="91.0739" y2="150.154" gradientUnits="userSpaceOnUse">
<stop stop-color="#5CB9E9"/>
<stop offset="0.902144" stop-color="#0061A7"/>
<stop offset="1" stop-color="#0061A7"/>
</linearGradient>
<linearGradient id="paint2_linear_895_7072" x1="81.276" y1="124.604" x2="38.931" y2="100.47" gradientUnits="userSpaceOnUse">
<stop stop-color="#84CFEC"/>
<stop offset="1" stop-color="#0056A5"/>
</linearGradient>
<linearGradient id="paint3_linear_895_7072" x1="3.76268" y1="136.109" x2="71.3228" y2="136.109" gradientUnits="userSpaceOnUse">
<stop stop-color="#84CFEC"/>
<stop offset="1" stop-color="#0056A5"/>
</linearGradient>
<linearGradient id="paint4_linear_895_7072" x1="3.97545" y1="136.11" x2="71.2732" y2="136.11" gradientUnits="userSpaceOnUse">
<stop stop-color="#84CFEC"/>
<stop offset="1" stop-color="#0056A5"/>
</linearGradient>
<linearGradient id="paint5_linear_895_7072" x1="43.5645" y1="71.1415" x2="56.5208" y2="175.363" gradientUnits="userSpaceOnUse">
<stop stop-color="#84CFEC"/>
<stop offset="0.289866" stop-color="#0056A5"/>
<stop offset="0.938766" stop-color="#0056A5"/>
<stop offset="1" stop-color="#0056A5"/>
</linearGradient>
<clipPath id="clip0_895_7072">
<rect width="500" height="105" fill="white" transform="translate(0 72)"/>
</clipPath>
</defs>
</svg>
